<svg width="42" height="22" viewBox="0 0 42 22" fill="none" xmlns="http://www.w3.org/2000/svg">
<g clip-path="url(#clip0_1253_38329)">
<path d="M40.6 0.662109H1.4C0.626801 0.662109 0 1.28891 0 2.06211V20.2997C0 21.0729 0.626801 21.6997 1.4 21.6997H40.6C41.3732 21.6997 42 21.0729 42 20.2997V2.06211C42 1.28891 41.3732 0.662109 40.6 0.662109Z" fill="white"/>
<path d="M4.20041 10.5181H5.84794L6.21941 9.61821H7.05108L7.4216 10.5181H10.6632V9.8301L10.9526 10.5211H12.6354L12.9248 9.81988V10.5181H20.9809L20.9772 9.04092H21.133C21.242 9.0447 21.274 9.05485 21.274 9.2358V10.5181H25.4406V10.1743C25.7767 10.3551 26.2995 10.5181 26.9872 10.5181H28.7402L29.1153 9.61821H29.947L30.3138 10.5181H33.6917V9.66336L34.2032 10.5181H36.9101V4.86719H34.2312V5.53455L33.8562 4.86719H31.1073V5.53455L30.7628 4.86719H27.0499C26.4284 4.86719 25.8821 4.95432 25.4407 5.19713V4.86719H22.8784V5.19713C22.5975 4.94685 22.2149 4.86719 21.7894 4.86719H12.4281L11.8 6.32668L11.155 4.86719H8.20651V5.53455L7.88255 4.86719H5.368L4.2002 7.55391L4.20041 10.5181ZM14.6002 9.70305H13.6116L13.608 6.52982L12.2098 9.70298H11.3632L9.96134 6.52701V9.70298H8.00008L7.62957 8.79928H5.62185L5.24761 9.70298H4.20029L5.92701 5.65139H7.35972L8.99967 9.48745V5.65139H10.5735L11.8354 8.39993L12.9946 5.65139H14.6001L14.6002 9.70305ZM7.30001 7.95844L6.64005 6.34319L5.98373 7.95844H7.30001ZM18.534 9.70298H15.3128V5.65134H18.534V6.49504H16.2772V7.22533H18.48V8.05588H16.2771V8.86501H18.534L18.534 9.70298ZM23.0734 6.74256C23.0734 7.3885 22.6441 7.72226 22.394 7.8225C22.605 7.90307 22.7853 8.04566 22.871 8.16368C23.0072 8.36521 23.0307 8.54518 23.0307 8.90701V9.70298H22.058L22.0544 9.19198C22.0544 8.94824 22.0776 8.59761 21.9022 8.40273C21.7613 8.26014 21.5465 8.22927 21.1993 8.22927H20.1643V9.70298H19.2V5.65134H21.4178C21.9105 5.65134 22.2737 5.6644 22.5854 5.8454C22.8905 6.02639 23.0734 6.29061 23.0734 6.74256ZM21.8545 7.34412C21.722 7.42497 21.5653 7.42763 21.3775 7.42763H20.2062V6.5277H21.3935C21.5615 6.5277 21.7369 6.53527 21.8508 6.60077C21.9759 6.65981 22.0532 6.78541 22.0532 6.95894C22.0532 7.13608 21.9796 7.27853 21.8545 7.34412ZM24.6199 9.70298H23.636V5.65134H24.6199V9.70298ZM36.0414 9.70298H34.675L32.8473 6.66197V9.70298H30.8835L30.5083 8.79928H28.5052L28.1412 9.70298H27.0126C26.5441 9.70298 25.9505 9.59882 25.6145 9.25484C25.2757 8.91086 25.0993 8.44487 25.0993 7.70805C25.0993 7.10717 25.2047 6.55787 25.6191 6.12377C25.9309 5.80042 26.4191 5.65134 27.0835 5.65134H28.0171V6.51949H27.1031C26.7512 6.51949 26.5525 6.57207 26.3611 6.75949C26.1968 6.93011 26.0839 7.25256 26.0839 7.67725C26.0839 8.11132 26.1698 8.42436 26.349 8.62876C26.4974 8.78913 26.7673 8.83771 27.021 8.83771H27.4541L28.8131 5.65148H30.258L31.8906 9.48374V5.65153H33.3588L35.0537 8.47329V5.65153H36.0414V9.70298ZM30.1801 7.95844L29.5128 6.34324L28.8492 7.95844H30.1801ZM38.4985 16.1727C38.2644 16.5166 37.808 16.691 37.19 16.691H35.3279V15.822H37.1824C37.3665 15.822 37.4951 15.7977 37.5727 15.7217C37.646 15.6537 37.6873 15.5578 37.6867 15.4574C37.6867 15.3393 37.6399 15.2456 37.5689 15.1894C37.4989 15.1275 37.3971 15.0994 37.2291 15.0994C36.3238 15.0686 35.1942 15.1275 35.1942 13.8451C35.1942 13.2573 35.5657 12.6386 36.5776 12.6386H38.4984V11.8323H36.7137C36.1752 11.8323 35.784 11.962 35.5069 12.1633V11.8323H32.8674C32.4452 11.8323 31.9497 11.9375 31.7154 12.1633V11.8323H27.0018V12.1633C26.6267 11.8915 25.9938 11.8323 25.7015 11.8323H22.5924V12.1633C22.2956 11.8746 21.6357 11.8323 21.2334 11.8323H17.7537L16.9576 12.6978L16.2117 11.8323H11.0136V17.487H16.1136L16.9341 16.6077L17.707 17.487L20.8507 17.4898V16.1596H21.1596C21.5767 16.166 22.0687 16.1491 22.5027 15.9607V17.4868H25.0958V16.0129H25.2208C25.3804 16.0129 25.3961 16.0196 25.3961 16.1797V17.4866H33.2732C33.7732 17.4866 34.296 17.3581 34.5855 17.1247V17.4866H37.084C37.6039 17.4866 38.1117 17.4134 38.498 17.226L38.4985 16.1727ZM22.88 13.9976C22.88 15.1234 22.0438 15.3558 21.2009 15.3558H19.9977V16.7151H18.1235L16.9362 15.3734L15.7022 16.7151H11.8827V12.6624H15.7609L16.9473 13.9908L18.1739 12.6624H21.255C22.0202 12.6624 22.88 12.8752 22.88 13.9976ZM15.2138 15.8626H12.843V15.0564H14.96V14.2295H12.843V13.4926H15.2605L16.3152 14.6737L15.2138 15.8626ZM19.0337 16.3267L17.5533 14.6759L19.0337 13.0776V16.3267ZM21.2231 14.5247H19.9771V13.4926H21.2343C21.5825 13.4926 21.8242 13.6352 21.8242 13.9896C21.8242 14.3401 21.5937 14.5247 21.2231 14.5247ZM27.7515 12.6624H30.9698V13.5006H28.7117V14.2374H30.9146V15.0642H28.7117V15.8705L30.9697 15.8742V16.7151H27.7514L27.7515 12.6624ZM26.5142 14.8317C26.7288 14.9113 26.9042 15.0539 26.9865 15.1719C27.1227 15.3698 27.1423 15.5545 27.1463 15.9116V16.7151H26.1781V16.2081C26.1781 15.9642 26.2015 15.6032 26.0222 15.4148C25.8814 15.2696 25.6665 15.2349 25.3149 15.2349H24.2843V16.7151H23.3153V12.6625H25.5417C26.0298 12.6625 26.3853 12.6841 26.7018 12.8538C27.0061 13.0384 27.1976 13.2913 27.1976 13.7537C27.1975 14.4005 26.7679 14.7306 26.5142 14.8317ZM25.9691 14.3194C25.8401 14.3963 25.6807 14.4029 25.4931 14.4029H24.3217V13.4928H25.509C25.6807 13.4928 25.8525 13.4964 25.9691 13.566C26.0942 13.6316 26.1689 13.7572 26.1689 13.9305C26.1689 14.1039 26.0941 14.2435 25.9691 14.3194ZM34.6739 14.5776C34.8618 14.7727 34.9623 15.0191 34.9623 15.4361C34.9623 16.3079 34.4201 16.7149 33.4475 16.7149H31.5694V15.8458H33.44C33.6229 15.8458 33.7526 15.8217 33.8339 15.7455C33.9002 15.6829 33.9477 15.5918 33.9477 15.4813C33.9477 15.3632 33.8963 15.2695 33.8301 15.2132C33.7564 15.1514 33.6547 15.1234 33.4867 15.1234C32.5849 15.0924 31.4556 15.1514 31.4556 13.869C31.4556 13.2812 31.8232 12.6625 32.8343 12.6625H34.7674V13.5251H32.9985C32.8233 13.5251 32.7092 13.5318 32.6122 13.5983C32.5067 13.6639 32.4675 13.7613 32.4675 13.8898C32.4675 14.0426 32.5571 14.1467 32.6785 14.1917C32.7801 14.2272 32.8895 14.2376 33.0536 14.2376L33.5728 14.2517C34.0961 14.2644 34.4555 14.3554 34.6739 14.5776ZM38.5002 13.4926H36.7428C36.5674 13.4926 36.4507 13.4993 36.3526 13.5659C36.2509 13.6315 36.2117 13.7289 36.2117 13.8575C36.2117 14.0104 36.2976 14.1143 36.4225 14.1593C36.5243 14.1949 36.6335 14.2053 36.7941 14.2053L37.3168 14.2193C37.8441 14.2324 38.196 14.3235 38.4107 14.5455C38.4499 14.5764 38.4732 14.6111 38.5001 14.6458L38.5002 13.4926Z" fill="#154DC6"/>
</g>
<defs>
<clipPath id="clip0_1253_38329">
<rect width="42" height="21.7" fill="white"/>
</clipPath>
</defs>
</svg>
