<svg width="48" height="49" viewBox="0 0 48 49" fill="none" xmlns="http://www.w3.org/2000/svg">
<rect x="0.5" y="1" width="47" height="47" stroke="#FF6445"/>
<path fill-rule="evenodd" clip-rule="evenodd" d="M25.2929 16.2929C25.6834 15.9024 26.3166 15.9024 26.7071 16.2929L34.2071 23.7929C34.5976 24.1834 34.5976 24.8166 34.2071 25.2071L26.7071 32.7071C26.3166 33.0976 25.6834 33.0976 25.2929 32.7071C24.9024 32.3166 24.9024 31.6834 25.2929 31.2929L31.0858 25.5H14C13.4477 25.5 13 25.0523 13 24.5C13 23.9477 13.4477 23.5 14 23.5H31.0858L25.2929 17.7071C24.9024 17.3166 24.9024 16.6834 25.2929 16.2929Z" fill="#FF6445"/>
</svg>
