<svg width="20" height="20" viewBox="0 0 20 20" fill="none" xmlns="http://www.w3.org/2000/svg">
<path fill-rule="evenodd" clip-rule="evenodd" d="M6.875 4.375C7.22018 4.375 7.5 4.65482 7.5 5V6.875C7.5 7.22018 7.22018 7.5 6.875 7.5C6.52982 7.5 6.25 7.22018 6.25 6.875V5C6.25 4.65482 6.52982 4.375 6.875 4.375ZM11.875 6.25H8.125V6.875C8.125 7.56536 7.56536 8.125 6.875 8.125C6.18464 8.125 5.625 7.56536 5.625 6.875V6.25H5.3125C4.79473 6.25 4.375 6.66973 4.375 7.1875V7.8125V8.75V14.6875C4.375 15.2053 4.79473 15.625 5.3125 15.625H14.6875C15.2053 15.625 15.625 15.2053 15.625 14.6875V8.75V7.8125V7.1875C15.625 6.66973 15.2053 6.25 14.6875 6.25H14.375V6.875C14.375 7.56536 13.8154 8.125 13.125 8.125C12.4346 8.125 11.875 7.56536 11.875 6.875V6.25ZM5.625 9.375V14.375H14.375V9.375H5.625ZM13.75 5C13.75 4.65482 13.4702 4.375 13.125 4.375C12.7798 4.375 12.5 4.65482 12.5 5V6.875C12.5 7.22018 12.7798 7.5 13.125 7.5C13.4702 7.5 13.75 7.22018 13.75 6.875V5Z" fill="#6E8185"/>
</svg>
