<svg width="28" height="28" viewBox="0 0 28 28" fill="none" xmlns="http://www.w3.org/2000/svg">
<rect width="28" height="28" rx="14" fill="#FF6445"/>
<path d="M14.5524 7.81433C14.5524 7.6649 14.6118 7.52159 14.7174 7.41592C14.8231 7.31026 14.9664 7.2509 15.1158 7.2509C16.6096 7.25254 18.0417 7.84667 19.098 8.90295C20.1542 9.95922 20.7484 11.3914 20.75 12.8852C20.75 13.0346 20.6906 13.1779 20.585 13.2836C20.4793 13.3892 20.336 13.4486 20.1866 13.4486C20.0372 13.4486 19.8938 13.3892 19.7882 13.2836C19.6825 13.1779 19.6232 13.0346 19.6232 12.8852C19.6218 11.6901 19.1465 10.5444 18.3015 9.69942C17.4565 8.85441 16.3108 8.37909 15.1158 8.37775C14.9664 8.37775 14.8231 8.31839 14.7174 8.21273C14.6118 8.10706 14.5524 7.96375 14.5524 7.81433ZM15.1158 10.6315C15.7135 10.6315 16.2868 10.8689 16.7094 11.2915C17.1321 11.7142 17.3695 12.2874 17.3695 12.8852C17.3695 13.0346 17.4289 13.1779 17.5345 13.2836C17.6402 13.3892 17.7835 13.4486 17.9329 13.4486C18.0823 13.4486 18.2256 13.3892 18.3313 13.2836C18.437 13.1779 18.4963 13.0346 18.4963 12.8852C18.4954 11.9889 18.139 11.1295 17.5052 10.4957C16.8714 9.86195 16.0121 9.5055 15.1158 9.5046C14.9664 9.5046 14.8231 9.56396 14.7174 9.66963C14.6118 9.77529 14.5524 9.9186 14.5524 10.068C14.5524 10.2175 14.6118 10.3608 14.7174 10.4664C14.8231 10.5721 14.9664 10.6315 15.1158 10.6315ZM20.239 16.6821C20.5655 17.0095 20.7488 17.453 20.7488 17.9154C20.7488 18.3778 20.5655 18.8213 20.239 19.1488L19.7263 19.7398C15.1119 24.1576 3.88297 12.9314 8.23256 8.30225L8.88049 7.73883C9.20827 7.42144 9.64782 7.24586 10.1041 7.25007C10.5603 7.25429 10.9965 7.43797 11.3184 7.76136C11.3359 7.77883 12.3799 9.13499 12.3799 9.13499C12.6897 9.46044 12.8621 9.89276 12.8614 10.3421C12.8606 10.7914 12.6868 11.2231 12.3759 11.5476L11.7235 12.3679C12.0846 13.2452 12.6154 14.0426 13.2856 14.7141C13.9557 15.3856 14.752 15.9181 15.6285 16.2809L16.4539 15.6245C16.7784 15.3139 17.2101 15.1403 17.6593 15.1396C18.1084 15.139 18.5406 15.3115 18.8659 15.6211C18.8659 15.6211 20.2215 16.6646 20.239 16.6821ZM19.4637 17.5013C19.4637 17.5013 18.1155 16.464 18.098 16.4466C17.9819 16.3315 17.8251 16.2669 17.6616 16.2669C17.4982 16.2669 17.3413 16.3315 17.2253 16.4466C17.21 16.4623 16.0736 17.3678 16.0736 17.3678C15.9971 17.4287 15.9059 17.4687 15.8092 17.4837C15.7125 17.4987 15.6135 17.4883 15.5221 17.4534C14.3865 17.0306 13.355 16.3687 12.4975 15.5125C11.6401 14.6562 10.9766 13.6257 10.5521 12.4908C10.5145 12.398 10.5022 12.297 10.5166 12.198C10.531 12.0989 10.5714 12.0055 10.6338 11.9273C10.6338 11.9273 11.5393 10.7903 11.5545 10.7757C11.6696 10.6596 11.7341 10.5028 11.7341 10.3393C11.7341 10.1759 11.6696 10.019 11.5545 9.90294C11.537 9.88604 10.4997 8.53664 10.4997 8.53664C10.3819 8.431 10.2282 8.37442 10.07 8.37851C9.91182 8.3826 9.76119 8.44703 9.64899 8.55861L9.00106 9.12204C5.82226 12.9443 15.553 22.1355 18.9026 18.9701L19.4158 18.3786C19.5361 18.2671 19.6083 18.1133 19.6173 17.9496C19.6262 17.7859 19.5712 17.6251 19.4637 17.5013Z" fill="white"/>
</svg>
