<svg width="42" height="22" viewBox="0 0 42 22" fill="none" xmlns="http://www.w3.org/2000/svg">
<g clip-path="url(#clip0_1253_38332)">
<path d="M40.6 0.662109H1.4C0.626801 0.662109 0 1.28891 0 2.06211V20.2997C0 21.0729 0.626801 21.6997 1.4 21.6997H40.6C41.3732 21.6997 42 21.0729 42 20.2997V2.06211C42 1.28891 41.3732 0.662109 40.6 0.662109Z" fill="white"/>
<path d="M21.9937 8.37793C23.5769 8.37793 24.8604 9.58669 24.8604 11.0799V11.0817C24.8604 12.5749 23.5769 13.7854 21.9937 13.7854C20.4104 13.7854 19.127 12.5749 19.127 11.0817V11.0799C19.127 9.58669 20.4104 8.37793 21.9937 8.37793Z" fill="#F47216"/>
<path d="M17.4917 8.41113C17.9438 8.41113 18.323 8.50262 18.7848 8.72333V9.88974C18.3475 9.48668 17.9684 9.31798 17.4667 9.31798C16.4809 9.31798 15.7057 10.0877 15.7057 11.0636C15.7057 12.0926 16.457 12.8165 17.5156 12.8165C17.9921 12.8165 18.3643 12.6566 18.7848 12.26V13.427C18.3067 13.6393 17.9194 13.723 17.4667 13.723C15.8662 13.723 14.6226 12.5646 14.6226 11.0709C14.6224 9.59287 15.8992 8.41113 17.4917 8.41113ZM12.5221 8.44326C13.113 8.44326 13.6536 8.63401 14.1055 9.00683L13.5556 9.68597C13.2817 9.39652 13.0228 9.27451 12.708 9.27451C12.2549 9.27451 11.925 9.51769 11.925 9.8378C11.925 10.1123 12.1101 10.2575 12.7409 10.4776C13.9365 10.8899 14.2908 11.2556 14.2908 12.063C14.2908 13.0469 13.5245 13.7318 12.4323 13.7318C11.6324 13.7318 11.051 13.4348 10.5667 12.7644L11.2457 12.1477C11.4878 12.589 11.8916 12.8256 12.393 12.8256C12.8619 12.8256 13.209 12.5206 13.209 12.1087C13.209 11.8953 13.1038 11.7123 12.8939 11.5829C12.7881 11.5217 12.5788 11.4302 12.1673 11.2935C11.1801 10.9583 10.8414 10.6 10.8414 9.89982C10.8414 9.06794 11.5687 8.44326 12.5221 8.44326ZM24.5333 8.53188H25.6814L27.1185 11.9456L28.5742 8.53188H29.7137L27.3857 13.7449H26.8201L24.5333 8.53188ZM9.11973 8.53965H10.1708V13.6221H9.11973V8.53965ZM30.1888 8.53965H33.1698V9.40086H31.2392V10.529H33.0986V11.3898H31.2392V12.7617H33.1698V13.6221H30.1888V8.53965ZM36.1038 11.4811C36.8955 11.329 37.3311 10.8184 37.3311 10.0402C37.3311 9.08873 36.6364 8.53972 35.4241 8.53972H33.8657V13.6222H34.9156V11.5804H35.0528L36.5076 13.6221H37.8002L36.1038 11.4811ZM35.2227 10.8794H34.9156V9.34017H35.2393C35.8939 9.34017 36.2497 9.59903 36.2497 10.0937C36.2498 10.6046 35.894 10.8794 35.2227 10.8794ZM5.74298 8.53965H4.2002V13.6221H5.73495C6.55094 13.6221 7.14041 13.4405 7.65764 13.0354C8.27245 12.5556 8.63589 11.8324 8.63589 11.0844C8.63596 9.58454 7.44764 8.53965 5.74298 8.53965ZM6.97096 12.3577C6.6407 12.6389 6.21172 12.7617 5.53262 12.7617H5.25045V9.40086H5.53257C6.21167 9.40086 6.62371 9.51559 6.97091 9.8119C7.33445 10.1172 7.55313 10.5903 7.55313 11.0772C7.55313 11.5648 7.33445 12.0525 6.97096 12.3577Z" fill="#333333"/>
</g>
<defs>
<clipPath id="clip0_1253_38332">
<rect width="42" height="21.7" fill="white"/>
</clipPath>
</defs>
</svg>
