<svg width="33" height="32" viewBox="0 0 33 32" fill="none" xmlns="http://www.w3.org/2000/svg">
<rect x="0.5" width="32" height="32" rx="16" fill="white"/>
<path fill-rule="evenodd" clip-rule="evenodd" d="M21.9697 14.7197C22.2626 14.4268 22.7374 14.4268 23.0303 14.7197L25.9991 17.6884C26.1397 17.8291 26.2188 18.0198 26.2188 18.2188C26.2188 18.4177 26.1397 18.6084 25.9991 18.7491L23.0303 21.7178C22.7374 22.0107 22.2626 22.0107 21.9697 21.7178C21.6768 21.4249 21.6768 20.9501 21.9697 20.6572L23.6581 18.9688H16.5C16.0858 18.9688 15.75 18.633 15.75 18.2188C15.75 17.8045 16.0858 17.4688 16.5 17.4688H23.6581L21.9697 15.7803C21.6768 15.4874 21.6768 15.0126 21.9697 14.7197Z" fill="#C3CBCC"/>
<path fill-rule="evenodd" clip-rule="evenodd" d="M10.9991 17.4678C10.7062 17.7607 10.2313 17.7607 9.93842 17.4678L6.96966 14.4991C6.82901 14.3584 6.74999 14.1677 6.74999 13.9687C6.74999 13.7698 6.82901 13.5791 6.96966 13.4384L9.93842 10.4697C10.2313 10.1768 10.7062 10.1768 10.9991 10.4697C11.292 10.7626 11.292 11.2374 10.9991 11.5303L9.31065 13.2187H16.4688C16.883 13.2187 17.2188 13.5545 17.2188 13.9687C17.2188 14.383 16.883 14.7187 16.4688 14.7187H9.31066L10.9991 16.4072C11.292 16.7001 11.292 17.1749 10.9991 17.4678Z" fill="#C3CBCC"/>
</svg>
