<svg width="35" height="48" viewBox="0 0 35 48" fill="none" xmlns="http://www.w3.org/2000/svg">
<path d="M32.7919 17.9193C32.2867 18.4531 31.6647 18.9557 30.8902 19.4563C30.2953 19.8406 29.6461 20.202 28.8487 20.5925C28.6379 20.6964 28.4166 20.8002 28.1744 20.9124V37.8492C28.1744 43.447 23.6092 48 17.996 48C17.4512 48 16.9001 47.9564 16.3573 47.8691H16.3448L16.3344 47.865C16.3051 47.8588 16.278 47.8546 16.2488 47.8504C16.2133 47.8442 16.1778 47.838 16.1423 47.8318C16.086 47.8235 16.0296 47.8131 15.9732 47.8006L15.9211 47.7902H15.9064L15.8939 47.7861C15.8042 47.7674 15.7123 47.7466 15.6225 47.7258L9.01365 46.1576C5.19569 45.252 2.10416 42.5247 0.741048 38.8669C0.452979 38.0901 0.24632 37.2821 0.127335 36.4658C0.0438367 35.9029 0 35.3213 0 34.7418V13.146C0 13.0879 0 13.0297 0.00417492 12.9716C0.0542739 10.7408 0.726436 8.58679 1.95177 6.74023C3.16668 4.90822 4.87004 3.45839 6.87818 2.55277C7.0076 2.49461 7.14746 2.43438 7.29358 2.37414C7.32072 2.36168 7.34577 2.35337 7.36665 2.34506C7.51485 2.2869 7.64845 2.23705 7.77787 2.19135C7.8739 2.15812 7.96992 2.12489 8.06803 2.09165C8.16823 2.05842 8.2726 2.02726 8.37906 1.99818C8.5064 1.95872 8.63165 1.92548 8.73811 1.89848L8.74854 1.89433H8.76107L8.76942 1.89017C8.84457 1.8694 8.91971 1.85071 8.99486 1.83409L15.6184 0.272102C15.9148 0.20148 16.2175 0.143321 16.5118 0.101779C16.5974 0.0893159 16.683 0.0789303 16.7686 0.0685447H16.7832L16.7894 0.0643905L16.8479 0.0581592C16.9335 0.0498507 17.0211 0.0394651 17.1067 0.0332338H17.1213L17.2487 0.0249254L17.3844 0.0145398C17.4532 0.0103856 17.5221 0.00623134 17.5889 0.00415423C17.6369 0.00415423 17.6766 0.00415423 17.7079 0.00415423C17.7351 0.00207711 17.7622 0.00207711 17.7914 0.00207711C17.8165 0.00207711 17.8394 0 17.8645 0H17.9981C18.0711 0 18.1463 0 18.2193 0.00207711H18.2486C20.8767 0.0685447 23.3545 1.13618 25.2228 3.00974C27.1265 4.9186 28.1744 7.45476 28.1744 10.1529V12.5478C28.5648 12.4024 28.9635 12.255 29.3726 12.122C29.4582 12.095 29.5438 12.0639 29.6315 12.0348C30.2118 11.8395 30.8673 11.6173 31.6083 11.6173C31.792 11.6173 31.9736 11.6318 32.1469 11.6588C32.7606 11.7565 33.3179 12.0784 33.6749 12.5395C35.0631 14.33 33.9066 16.7395 32.7919 17.9234V17.9193Z" fill="#FF6445"/>
<path d="M15.9106 46.5128C15.8835 46.5086 15.8584 46.5024 15.8313 46.4962L14.5433 46.1908L15.9106 46.5128Z" fill="#FF6445"/>
<path d="M9.30381 44.9467C5.07044 43.9413 1.97682 40.4892 1.3652 36.283C1.3652 36.3225 1.36937 36.3599 1.37355 36.3993C1.37772 36.4471 1.3819 36.4866 1.38816 36.5156C2.05197 40.5993 5.1268 43.9704 9.27667 44.9487L14.5433 46.1908L9.30381 44.9467Z" fill="white"/>
<path d="M7.39378 3.68895C3.76369 5.3278 1.34224 8.91289 1.25456 13.0131C1.30466 8.92951 3.75116 5.31949 7.39378 3.68895Z" fill="white"/>
<path d="M32.9213 13.8149C32.9255 16.2846 30.2786 17.5059 28.379 18.5112C27.6881 18.856 26.9867 19.1863 26.2895 19.5643C26.2769 19.5706 26.2644 19.5768 26.2519 19.583C25.3501 20.0483 24.2458 20.6029 24.2458 20.6029L6.75293 29.6217L4.49013 30.7932C2.41519 31.8671 1.17524 34.0833 1.40277 36.3993C1.40695 36.4471 1.41112 36.4866 1.41738 36.5156C2.0812 40.5993 5.15603 43.9704 9.3059 44.9487L15.9398 46.5128C21.5614 47.838 26.9512 43.5965 26.9512 37.8492V20.1127C29.4499 18.9952 33.748 16.9804 32.9213 13.8149ZM20.6638 29.4161L16.9543 25.3159L22.699 22.2043C22.699 22.2043 22.9725 27.8292 20.6638 29.4161Z" fill="white"/>
<path d="M31.5624 12.8636C30.0657 13.3725 28.2976 14.0351 26.9533 14.5336C25.5923 15.1131 24.2563 15.7487 22.9182 16.3697C19.9749 17.6264 15.4952 15.7071 12.7815 14.1202C10.0657 12.5333 7.39587 12.93 5.49837 14.5813L13.2804 21.8595L16.7164 20.3391L9.84028 26.1571C9.84028 26.1571 7.53155 27.2829 5.17899 25.6295C3.66975 24.5639 2.5133 24.8402 1.87871 25.1746C1.57394 25.3345 1.51758 25.7437 1.7639 25.9826L4.99738 29.1357C4.60911 29.3455 4.19997 29.441 3.80126 29.441C2.48616 29.441 1.28379 28.3941 1.28379 26.9381V13.146C1.28379 8.33753 4.60494 4.15838 9.30798 3.0492L15.9419 1.48514C21.5635 0.159938 26.9533 4.4014 26.9533 10.1488V14.3217C28.2913 13.8897 30.0051 13.0879 31.5624 12.8636Z" fill="white"/>
</svg>
