<svg width="32" height="32" viewBox="0 0 32 32" fill="none" xmlns="http://www.w3.org/2000/svg">
<rect x="0.5" y="0.5" width="31" height="31" fill="#042228"/>
<rect x="0.5" y="0.5" width="31" height="31" stroke="#28444A"/>
<path d="M16 9.25C14.665 9.25 13.3599 9.64588 12.2499 10.3876C11.1399 11.1293 10.2747 12.1835 9.76382 13.4169C9.25292 14.6503 9.11925 16.0075 9.3797 17.3169C9.64015 18.6262 10.283 19.829 11.227 20.773C12.171 21.717 13.3738 22.3598 14.6831 22.6203C15.9925 22.8807 17.3497 22.7471 18.5831 22.2362C19.8165 21.7253 20.8707 20.8601 21.6124 19.7501C22.3541 18.6401 22.75 17.335 22.75 16C22.7481 14.2104 22.0363 12.4946 20.7709 11.2291C19.5054 9.96366 17.7896 9.25189 16 9.25ZM16.5192 21.6875V17.5577H18.0769C18.2146 17.5577 18.3467 17.503 18.4441 17.4056C18.5415 17.3082 18.5962 17.1762 18.5962 17.0385C18.5962 16.9008 18.5415 16.7687 18.4441 16.6713C18.3467 16.5739 18.2146 16.5192 18.0769 16.5192H16.5192V14.9615C16.5192 14.6861 16.6286 14.422 16.8234 14.2272C17.0181 14.0325 17.2823 13.9231 17.5577 13.9231H18.5962C18.7339 13.9231 18.8659 13.8684 18.9633 13.771C19.0607 13.6736 19.1154 13.5416 19.1154 13.4038C19.1154 13.2661 19.0607 13.1341 18.9633 13.0367C18.8659 12.9393 18.7339 12.8846 18.5962 12.8846H17.5577C17.0069 12.8846 16.4786 13.1034 16.0891 13.4929C15.6996 13.8824 15.4808 14.4107 15.4808 14.9615V16.5192H13.9231C13.7854 16.5192 13.6533 16.5739 13.5559 16.6713C13.4586 16.7687 13.4038 16.9008 13.4038 17.0385C13.4038 17.1762 13.4586 17.3082 13.5559 17.4056C13.6533 17.503 13.7854 17.5577 13.9231 17.5577H15.4808V21.6875C14.0171 21.5539 12.6612 20.8612 11.6952 19.7534C10.7292 18.6456 10.2275 17.208 10.2944 15.7397C10.3613 14.2715 10.9916 12.8855 12.0543 11.8701C13.117 10.8547 14.5302 10.2881 16 10.2881C17.4698 10.2881 18.883 10.8547 19.9457 11.8701C21.0084 12.8855 21.6387 14.2715 21.7056 15.7397C21.7725 17.208 21.2708 18.6456 20.3048 19.7534C19.3388 20.8612 17.9829 21.5539 16.5192 21.6875Z" fill="#455D63"/>
</svg>
