<svg width="24" height="24" viewBox="0 0 24 24" fill="none" xmlns="http://www.w3.org/2000/svg">
<rect width="24" height="24" fill="#19383E"/>
<path d="M15.9375 6.75H8.0625C7.31685 6.75081 6.602 7.02045 6.07475 7.49977C5.5475 7.97909 5.25089 8.62896 5.25 9.30682V15.4432C5.25089 16.121 5.5475 16.7709 6.07475 17.2502C6.602 17.7295 7.31685 17.9992 8.0625 18H15.9375C16.6831 17.9992 17.398 17.7295 17.9253 17.2502C18.4525 16.7709 18.7491 16.121 18.75 15.4432V9.30682C18.7491 8.62896 18.4525 7.97909 17.9253 7.49977C17.398 7.02045 16.6831 6.75081 15.9375 6.75ZM8.0625 7.77273H15.9375C16.2743 7.77333 16.6032 7.86555 16.8819 8.03751C17.1606 8.20948 17.3763 8.45333 17.5013 8.73767L13.1936 12.6542C12.8766 12.9412 12.4474 13.1024 12 13.1024C11.5526 13.1024 11.1234 12.9412 10.8064 12.6542L6.49875 8.73767C6.62371 8.45333 6.83941 8.20948 7.11809 8.03751C7.39677 7.86555 7.72568 7.77333 8.0625 7.77273ZM15.9375 16.9773H8.0625C7.61495 16.9773 7.18572 16.8156 6.86926 16.5279C6.55279 16.2402 6.375 15.85 6.375 15.4432V10.0739L10.011 13.3773C10.539 13.856 11.2543 14.1249 12 14.1249C12.7457 14.1249 13.461 13.856 13.989 13.3773L17.625 10.0739V15.4432C17.625 15.85 17.4472 16.2402 17.1307 16.5279C16.8143 16.8156 16.3851 16.9773 15.9375 16.9773Z" fill="#536A6F"/>
</svg>
