<svg width="224" height="65" viewBox="0 0 224 65" fill="none" xmlns="http://www.w3.org/2000/svg">
<path d="M21.5876 62.9838C21.5508 62.9781 21.5168 62.9697 21.48 62.9613L19.7324 62.5479L21.5876 62.9838Z" fill="#FF6445"/>
<path d="M9.56738 59.7637C9.8846 59.924 10.2103 60.0702 10.5445 60.2024C10.2132 60.0674 9.88744 59.9212 9.56738 59.7637ZM10.5445 60.2024C10.8787 60.3402 11.2186 60.4611 11.5642 60.5708C11.2186 60.4583 10.8787 60.3374 10.5445 60.2024ZM12.6235 60.8633C12.5555 60.8464 12.4903 60.8324 12.4224 60.8155L12.6263 60.8661L13.8923 61.1642L12.6235 60.8633Z" fill="white"/>
<path d="M30.683 29.8506C30.683 29.8506 31.0526 37.4109 27.9319 39.5439L22.918 34.0328L30.683 29.8506Z" fill="#FF6445"/>
<path d="M45.5179 16.8572C45.0354 16.2374 44.282 15.8046 43.4524 15.6734C43.2183 15.6343 42.9728 15.6176 42.7245 15.6176C41.7228 15.6176 40.8368 15.9135 40.0524 16.1787C39.9339 16.2178 39.8182 16.2597 39.7026 16.296C39.1495 16.4719 38.6106 16.6729 38.083 16.8683V13.6493C38.083 10.0227 36.6665 6.61388 34.0932 4.04818C31.5679 1.52993 28.2187 0.0949228 24.6663 0.00558369H24.6268C24.5281 0 24.4265 0 24.3277 0H24.1471C24.1133 0 24.0823 0.00558369 24.0484 0.00558369C24.0089 0.00558369 23.9722 0.00558369 23.9355 0.00837554C23.8932 0.00837554 23.8396 0.00837554 23.7747 0.00837554C23.6844 0.00837554 23.5913 0.0167511 23.4982 0.0223348L23.3148 0.036294L23.1427 0.0474614H23.1229C23.0072 0.0586288 22.8887 0.072588 22.773 0.0837554L22.694 0.0921309H22.6856L22.6658 0.0977146C22.5501 0.111674 22.4344 0.125633 22.3188 0.142384C21.9209 0.198221 21.5118 0.276393 21.1111 0.371316L12.1582 2.47078C12.0566 2.49312 11.9551 2.51824 11.8535 2.54616H11.8422L11.8253 2.55175L11.8112 2.55733C11.6673 2.59083 11.498 2.63829 11.3259 2.69134C11.182 2.73043 11.0409 2.7723 10.9054 2.81697C10.7728 2.85885 10.643 2.90631 10.5132 2.95098C10.3383 3.00961 10.1577 3.07941 9.95738 3.15758C9.92917 3.16875 9.89531 3.17991 9.85863 3.19666C9.66112 3.27763 9.47207 3.35859 9.29713 3.43676C6.58276 4.65401 4.28035 6.60272 2.63818 9.06512C0.981913 11.5499 0.0733613 14.445 0.00564317 17.4435C0 17.5188 0 17.5998 0 17.678V46.7048C0 47.4837 0.0592533 48.2654 0.172117 49.022C0.332947 50.1192 0.612284 51.2052 1.00166 52.2494C2.84416 57.163 7.02293 60.8315 12.1836 62.0488L19.2658 63.7211L21.1168 64.1538C21.2381 64.1845 21.3622 64.2125 21.4836 64.2376H21.5005L21.5202 64.2432L21.5908 64.2571C21.667 64.2739 21.7432 64.2878 21.8193 64.299C21.8673 64.3074 21.9153 64.3158 21.9632 64.3241C22.0027 64.3297 22.0394 64.3353 22.0789 64.3437H22.093L22.11 64.3493C22.8436 64.4665 23.5885 64.5251 24.3249 64.5251C31.9122 64.5251 38.083 58.4054 38.083 50.8814V28.1167C38.4103 27.9659 38.7094 27.8263 38.9943 27.6867C40.0722 27.1619 40.9497 26.6733 41.7539 26.1596C42.8007 25.4868 43.6415 24.8111 44.3243 24.0908C45.831 22.5023 47.3942 19.2637 45.5179 16.8572ZM1.73245 17.6752C1.73245 11.2121 6.2216 5.59486 12.5786 4.10401L21.5456 2.00175C29.1442 0.220556 36.4295 5.92151 36.4295 13.6465V19.2554C38.2382 18.6747 40.5575 17.597 42.6624 17.2955C40.6393 17.9795 38.2466 18.8701 36.4295 19.5401C34.5898 20.3191 32.784 21.1734 30.9754 22.0081C26.997 23.6972 20.9418 21.1175 17.2738 18.9846C13.6029 16.8516 9.99406 17.3848 7.42924 19.6043L17.9481 29.387L22.5925 27.3433L13.2981 35.1633C13.2981 35.1633 10.1775 36.6765 6.99754 34.4542C4.95753 33.022 3.39437 33.3933 2.53661 33.8428C2.12748 34.0577 2.05129 34.6049 2.38142 34.9288L6.75206 39.1668C6.22724 39.4488 5.67421 39.5772 5.13529 39.5772C3.35769 39.5772 1.73245 38.1701 1.73245 36.213V17.6752ZM36.4295 27.039V50.8786C36.4295 58.6036 29.1442 64.3046 21.5456 62.5234L13.8399 60.7171L12.5758 60.4183C12.5081 60.4016 12.4432 60.3876 12.3755 60.3709C12.2654 60.343 12.1526 60.3122 12.0425 60.2815C11.8676 60.2369 11.6927 60.1838 11.5205 60.128C11.1763 60.0163 10.8377 59.8963 10.5048 59.7622C10.1746 59.6282 9.85016 59.4831 9.53132 59.3267C9.37613 59.2486 9.22095 59.1676 9.06576 59.0866C8.88518 58.9889 8.7046 58.8884 8.52966 58.7795C8.40269 58.7041 8.27854 58.626 8.15439 58.5478C8.00767 58.4529 7.86094 58.3552 7.71986 58.2574C7.57596 58.1569 7.43488 58.0536 7.29663 57.9503C7.16683 57.8554 7.04268 57.7577 6.91853 57.6544C6.87057 57.6181 6.82542 57.5818 6.77745 57.5399C6.69281 57.4701 6.60816 57.4003 6.52633 57.3278C6.27803 57.1128 6.03538 56.8866 5.80683 56.6549C5.71936 56.5712 5.63753 56.4846 5.55571 56.3981C5.51903 56.359 5.47952 56.3199 5.44566 56.2808C5.38077 56.2166 5.32151 56.1496 5.26508 56.0826C5.19736 56.0128 5.13529 55.9402 5.07604 55.8676C4.98575 55.7615 4.89828 55.6582 4.81363 55.5521C4.70641 55.4209 4.60201 55.2869 4.50043 55.1501C4.33396 54.9296 4.17595 54.7062 4.02641 54.4745C3.95022 54.36 3.87686 54.2428 3.8035 54.1255C2.86391 52.6068 2.21212 50.8981 1.91586 49.0862C1.90739 49.0471 1.90175 48.9941 1.89611 48.9299C1.58855 45.817 3.26458 42.8381 6.06923 41.3947L9.12784 39.8201L32.7727 27.6979C32.7727 27.6979 34.2654 26.9525 35.4843 26.3271C35.5012 26.3187 35.5181 26.3104 35.5351 26.302C36.4775 25.7939 37.4255 25.35 38.3595 24.8865C40.9271 23.5353 44.5049 21.8937 44.4993 18.5742C45.6166 22.8289 39.807 25.537 36.4295 27.039Z" fill="#FF6445"/>
<path d="M62.2353 25.8613L57.6362 39.2002L53.0152 25.8613H49.4023L55.5655 42.6349H59.6578L65.8237 25.8613H62.2353Z" fill="white"/>
<path d="M77.5233 29.3223V36.6512C77.5233 37.7091 77.259 38.5222 76.7304 39.0905C76.1991 39.6589 75.4689 39.9417 74.5371 39.9417C73.6053 39.9417 72.9023 39.6589 72.371 39.0905C71.8425 38.5222 71.5782 37.7091 71.5782 36.6512V29.3223H68.2051V37.1325C68.2051 38.3182 68.4339 39.338 68.8917 40.1946C69.3494 41.0513 69.9788 41.7012 70.7826 42.1418C71.5836 42.5823 72.5073 42.8026 73.5508 42.8026C74.3709 42.8026 75.1284 42.6367 75.8259 42.3104C76.5234 41.9813 77.0901 41.5299 77.5233 40.9506V42.634H80.9182V29.3223H77.5233Z" fill="white"/>
<path d="M97.1227 35.6873C97.1227 34.3901 96.8447 33.2425 96.2916 32.239C95.7385 31.2383 94.9593 30.466 93.9566 29.9221C92.954 29.3755 91.8178 29.1035 90.5508 29.1035C89.2839 29.1035 88.0714 29.3836 87.0579 29.9438C86.047 30.5068 85.2624 31.3063 84.6984 32.3478C84.1371 33.3894 83.8564 34.5995 83.8564 35.9756C83.8564 37.3516 84.1425 38.54 84.712 39.5816C85.2814 40.6231 86.0743 41.4281 87.096 41.9964C88.115 42.5648 89.2648 42.8503 90.5508 42.8503C92.1393 42.8503 93.4798 42.437 94.5697 41.6103C95.6622 40.7863 96.4006 39.7339 96.7848 38.453H93.1501C92.6216 39.5245 91.7306 40.0629 90.4773 40.0629C89.6109 40.0629 88.8807 39.791 88.2867 39.2444C87.6927 38.7005 87.3549 37.9472 87.2758 36.9845H97.0273C97.09 36.601 97.1227 36.1687 97.1227 35.6873ZM87.3004 34.7273C87.4284 33.8299 87.7772 33.1283 88.3466 32.6252C88.9161 32.1194 89.619 31.8665 90.4528 31.8665C91.3355 31.8665 92.0821 32.1275 92.6924 32.6497C93.3027 33.1691 93.6161 33.8626 93.6324 34.7273H87.3004Z" fill="white"/>
<path d="M100.06 24.8516V42.6341H103.43V24.8516H100.06Z" fill="white"/>
<path d="M119.212 32.3723C118.61 31.3307 117.787 30.5258 116.743 29.9574C115.7 29.3891 114.536 29.1035 113.253 29.1035C111.97 29.1035 110.804 29.3891 109.76 29.9574C108.716 30.5258 107.894 31.3307 107.291 32.3723C106.692 33.4138 106.39 34.6158 106.39 35.9756C106.39 37.3353 106.681 38.54 107.27 39.5816C107.856 40.6231 108.662 41.4281 109.689 41.9964C110.716 42.5648 111.872 42.8503 113.155 42.8503C114.438 42.8503 115.632 42.5648 116.683 41.9964C117.735 41.4281 118.569 40.6231 119.187 39.5816C119.803 38.54 120.114 37.338 120.114 35.9756C120.114 34.6131 119.811 33.4138 119.212 32.3723ZM116.166 38.1403C115.844 38.7331 115.414 39.1764 114.877 39.4728C114.34 39.7692 113.765 39.9188 113.155 39.9188C112.193 39.9188 111.395 39.5761 110.76 38.8963C110.125 38.2164 109.809 37.2428 109.809 35.9756C109.809 34.7083 110.133 33.7375 110.784 33.0576C111.433 32.375 112.239 32.0351 113.204 32.0351C114.168 32.0351 114.98 32.375 115.648 33.0576C116.313 33.7375 116.645 34.711 116.645 35.9756C116.645 36.8268 116.487 37.5474 116.166 38.1403Z" fill="white"/>
<path d="M131.622 35.8336C132.889 35.4991 133.846 34.8845 134.486 33.9952C135.129 33.1059 135.45 32.1106 135.45 31.0038C135.45 30.0438 135.222 29.1736 134.764 28.3959C134.306 27.6208 133.619 27.0035 132.704 26.5466C131.791 26.0898 130.682 25.8613 129.383 25.8613H123.075V42.6349H126.446V36.1001H128.034L131.742 42.6349H135.641L131.622 35.8336ZM129.263 33.5764H126.446V28.6488H129.263C130.178 28.6488 130.859 28.8609 131.309 29.2851C131.759 29.7121 131.982 30.3076 131.982 31.0772C131.982 31.8468 131.759 32.475 131.309 32.9156C130.859 33.3561 130.178 33.5764 129.263 33.5764Z" fill="white"/>
<path d="M151.392 35.6873C151.392 34.3901 151.114 33.2425 150.561 32.239C150.005 31.2383 149.229 30.466 148.226 29.9221C147.221 29.3755 146.087 29.1035 144.818 29.1035C143.548 29.1035 142.338 29.3836 141.327 29.9438C140.317 30.5068 139.529 31.3063 138.968 32.3478C138.407 33.3894 138.126 34.5995 138.126 35.9756C138.126 37.3516 138.409 38.54 138.979 39.5816C139.548 40.6231 140.344 41.4281 141.363 41.9964C142.382 42.5648 143.534 42.8503 144.818 42.8503C146.406 42.8503 147.747 42.437 148.839 41.6103C149.929 40.7863 150.667 39.7339 151.054 38.453H147.42C146.888 39.5245 145.997 40.0629 144.747 40.0629C143.88 40.0629 143.147 39.791 142.556 39.2444C141.962 38.7005 141.624 37.9472 141.543 36.9845H151.294C151.359 36.601 151.392 36.1687 151.392 35.6873ZM141.567 34.7273C141.695 33.8299 142.044 33.1283 142.616 32.6252C143.186 32.1194 143.886 31.8665 144.722 31.8665C145.605 31.8665 146.352 32.1275 146.962 32.6497C147.57 33.1691 147.883 33.8626 147.899 34.7273H141.567Z" fill="white"/>
<path d="M163.971 36.7098C163.513 36.1741 162.971 35.7771 162.344 35.5187C161.718 35.2631 160.925 35.0156 159.96 34.7763C159.015 34.5343 158.315 34.2977 157.868 34.0665C157.418 33.8326 157.192 33.4927 157.192 33.044C157.192 32.6442 157.358 32.3315 157.685 32.1085C158.015 31.8828 158.484 31.7713 159.094 31.7713C159.753 31.7713 160.279 31.929 160.671 32.239C161.064 32.5518 161.284 32.9733 161.333 33.5009H164.559C164.464 32.1547 163.941 31.086 162.996 30.2946C162.047 29.5006 160.78 29.1035 159.192 29.1035C158.116 29.1035 157.181 29.2803 156.386 29.6338C155.593 29.9846 154.982 30.466 154.557 31.0751C154.13 31.6843 153.917 32.356 153.917 33.093C153.917 33.9904 154.146 34.7029 154.604 35.2304C155.061 35.7607 155.606 36.1523 156.241 36.408C156.876 36.6663 157.691 36.9138 158.685 37.1531C159.65 37.4114 160.35 37.6453 160.791 37.8629C161.233 38.0804 161.453 38.404 161.453 38.8364C161.453 39.2362 161.274 39.5652 160.911 39.8209C160.552 40.0792 160.05 40.207 159.407 40.207C158.764 40.207 158.2 40.0384 157.759 39.7012C157.317 39.364 157.064 38.9398 156.999 38.4285H153.606C153.653 39.2444 153.931 39.9895 154.435 40.6612C154.942 41.3356 155.628 41.8686 156.495 42.2602C157.361 42.6518 158.339 42.8503 159.432 42.8503C160.524 42.8503 161.418 42.6763 162.214 42.3337C163.006 41.9883 163.617 41.5124 164.042 40.9032C164.467 40.2941 164.679 39.606 164.679 38.8364C164.663 37.9553 164.429 37.2456 163.971 36.7098Z" fill="white"/>
<path d="M180.329 35.6873C180.329 34.3901 180.051 33.2425 179.498 32.239C178.945 31.2383 178.165 30.466 177.163 29.9221C176.16 29.3755 175.024 29.1035 173.757 29.1035C172.49 29.1035 171.275 29.3836 170.264 29.9438C169.253 30.5068 168.468 31.3063 167.904 32.3478C167.343 33.3894 167.062 34.5995 167.062 35.9756C167.062 37.3516 167.349 38.54 167.918 39.5816C168.487 40.6231 169.28 41.4281 170.302 41.9964C171.321 42.5648 172.471 42.8503 173.757 42.8503C175.345 42.8503 176.686 42.437 177.776 41.6103C178.868 40.7863 179.607 39.7339 179.991 38.453H176.356C175.828 39.5245 174.937 40.0629 173.683 40.0629C172.817 40.0629 172.087 39.791 171.493 39.2444C170.899 38.7005 170.561 37.9472 170.482 36.9845H180.233C180.296 36.601 180.329 36.1687 180.329 35.6873ZM170.506 34.7273C170.634 33.8299 170.983 33.1283 171.553 32.6252C172.122 32.1194 172.825 31.8665 173.659 31.8665C174.542 31.8665 175.288 32.1275 175.898 32.6497C176.509 33.1691 176.822 33.8626 176.838 34.7273H170.506Z" fill="white"/>
<path d="M188.335 29.7299C187.638 30.1297 187.071 30.6844 186.638 31.3888V29.322H183.268V42.6337H186.638V36.001C186.638 34.769 186.908 33.9015 187.444 33.4066C187.984 32.9089 188.782 32.6615 189.839 32.6615H190.73V29.1289C189.831 29.1289 189.033 29.3301 188.335 29.7299Z" fill="white"/>
<path d="M202.406 29.3223L199.036 39.5338L195.666 29.3223H192.053L196.965 42.634H201.058L205.995 29.3223H202.406Z" fill="white"/>
<path d="M218.007 29.3211V31.2192C217.557 30.6101 216.961 30.1043 216.214 29.7045C215.468 29.3048 214.596 29.1035 213.601 29.1035C212.462 29.1035 211.43 29.3836 210.509 29.9438C209.585 30.5068 208.855 31.3063 208.318 32.3478C207.779 33.3894 207.512 34.5832 207.512 35.9293C207.512 37.2755 207.779 38.4965 208.318 39.5462C208.855 40.5932 209.585 41.4063 210.509 41.9856C211.43 42.5621 212.454 42.8503 213.577 42.8503C214.574 42.8503 215.451 42.6464 216.214 42.2358C216.977 41.8278 217.574 41.3111 218.007 40.6857V42.6328H221.402V29.3211H218.007ZM217.525 38.0804C217.206 38.6651 216.773 39.1138 216.225 39.4238C215.68 39.7366 215.094 39.8943 214.468 39.8943C213.841 39.8943 213.285 39.7339 212.746 39.413C212.209 39.0921 211.776 38.6325 211.446 38.0315C211.116 37.4305 210.953 36.7289 210.953 35.9293C210.953 35.1298 211.116 34.4336 211.446 33.849C211.776 33.2643 212.206 32.821 212.735 32.5164C213.263 32.2118 213.844 32.0596 214.468 32.0596C215.092 32.0596 215.68 32.2146 216.225 32.5273C216.773 32.84 217.206 33.2888 217.525 33.8734C217.846 34.4581 218.007 35.1597 218.007 35.9756C218.007 36.7914 217.846 37.4957 217.525 38.0804Z" fill="white"/>
</svg>
