<svg width="24" height="24" viewBox="0 0 24 24" fill="none" xmlns="http://www.w3.org/2000/svg">
<rect width="24" height="24" fill="#19383E"/>
<path d="M12.5524 5.81433C12.5524 5.6649 12.6118 5.52159 12.7174 5.41592C12.8231 5.31026 12.9664 5.2509 13.1158 5.2509C14.6096 5.25254 16.0417 5.84667 17.098 6.90295C18.1542 7.95922 18.7484 9.39136 18.75 10.8852C18.75 11.0346 18.6906 11.1779 18.585 11.2836C18.4793 11.3892 18.336 11.4486 18.1866 11.4486C18.0372 11.4486 17.8938 11.3892 17.7882 11.2836C17.6825 11.1779 17.6232 11.0346 17.6232 10.8852C17.6218 9.69013 17.1465 8.54443 16.3015 7.69942C15.4565 6.85441 14.3108 6.37909 13.1158 6.37775C12.9664 6.37775 12.8231 6.31839 12.7174 6.21273C12.6118 6.10706 12.5524 5.96375 12.5524 5.81433ZM13.1158 8.63145C13.7135 8.63145 14.2868 8.8689 14.7094 9.29155C15.1321 9.7142 15.3695 10.2874 15.3695 10.8852C15.3695 11.0346 15.4289 11.1779 15.5345 11.2836C15.6402 11.3892 15.7835 11.4486 15.9329 11.4486C16.0823 11.4486 16.2256 11.3892 16.3313 11.2836C16.437 11.1779 16.4963 11.0346 16.4963 10.8852C16.4954 9.98885 16.139 9.12951 15.5052 8.49573C14.8714 7.86195 14.0121 7.5055 13.1158 7.5046C12.9664 7.5046 12.8231 7.56396 12.7174 7.66963C12.6118 7.77529 12.5524 7.9186 12.5524 8.06803C12.5524 8.21746 12.6118 8.36077 12.7174 8.46643C12.8231 8.57209 12.9664 8.63145 13.1158 8.63145ZM18.239 14.6821C18.5655 15.0095 18.7488 15.453 18.7488 15.9154C18.7488 16.3778 18.5655 16.8213 18.239 17.1488L17.7263 17.7398C13.1119 22.1576 1.88297 10.9314 6.23256 6.30225L6.88049 5.73883C7.20827 5.42144 7.64782 5.24586 8.10406 5.25007C8.5603 5.25429 8.99654 5.43797 9.31839 5.76136C9.33586 5.77883 10.3799 7.13499 10.3799 7.13499C10.6897 7.46044 10.8621 7.89276 10.8614 8.34208C10.8606 8.7914 10.6868 9.22315 10.3759 9.54758L9.72349 10.3679C10.0846 11.2452 10.6154 12.0426 11.2856 12.7141C11.9557 13.3856 12.752 13.9181 13.6285 14.2809L14.4539 13.6245C14.7784 13.3139 15.2101 13.1403 15.6593 13.1396C16.1084 13.139 16.5406 13.3115 16.8659 13.6211C16.8659 13.6211 18.2215 14.6646 18.239 14.6821ZM17.4637 15.5013C17.4637 15.5013 16.1155 14.464 16.098 14.4466C15.9819 14.3315 15.8251 14.2669 15.6616 14.2669C15.4982 14.2669 15.3413 14.3315 15.2253 14.4466C15.21 14.4623 14.0736 15.3678 14.0736 15.3678C13.9971 15.4287 13.9059 15.4687 13.8092 15.4837C13.7125 15.4987 13.6135 15.4883 13.5221 15.4534C12.3865 15.0306 11.355 14.3687 10.4975 13.5125C9.64007 12.6562 8.97663 11.6257 8.55215 10.4908C8.51451 10.398 8.50224 10.297 8.5166 10.198C8.53095 10.0989 8.57142 10.0055 8.63384 9.92733C8.63384 9.92733 9.53925 8.79034 9.55447 8.77569C9.66955 8.65962 9.73413 8.50278 9.73413 8.33932C9.73413 8.17586 9.66955 8.01902 9.55447 7.90294C9.537 7.88604 8.49975 6.53664 8.49975 6.53664C8.38194 6.431 8.22818 6.37442 8.07 6.37851C7.91182 6.3826 7.76119 6.44703 7.64899 6.55861L7.00106 7.12204C3.82226 10.9443 13.553 20.1355 16.9026 16.9701L17.4158 16.3786C17.5361 16.2671 17.6083 16.1133 17.6173 15.9496C17.6262 15.7859 17.5712 15.6251 17.4637 15.5013Z" fill="#536A6F"/>
</svg>
