<svg width="20" height="20" viewBox="0 0 20 20" fill="none" xmlns="http://www.w3.org/2000/svg">
<path d="M9.41062 15.2961L9.75862 16.1101L9.41062 15.2961L5.95963 16.7717L6.23461 12.7661C6.2604 12.3905 6.14398 12.0189 5.90848 11.7251L3.4134 8.61279L7.11628 7.65133C7.5 7.5517 7.82867 7.30421 8.03045 6.96296L7.16968 6.45397L8.03045 6.96296L10.0003 3.63166L11.9702 6.96296C12.172 7.30421 12.5007 7.5517 12.8844 7.65133L16.5873 8.61279L14.0922 11.7251C14.0922 11.7251 14.0922 11.7251 14.0922 11.7251C13.8567 12.0189 13.7403 12.3905 13.766 12.7661L14.041 16.7717L10.59 15.2961L10.1969 16.2156L10.59 15.2961C10.2134 15.1351 9.78726 15.1351 9.41062 15.2961ZM2.66585 8.8069L2.6664 8.80676C2.66621 8.8068 2.66603 8.80685 2.66585 8.8069L2.54019 8.32294L2.66585 8.8069Z" stroke="#FF6445" stroke-width="2"/>
<path fill-rule="evenodd" clip-rule="evenodd" d="M10.0527 2.30273C9.88563 2.30278 9.71863 2.38486 9.62196 2.54897L7.24038 6.59221C7.17324 6.70619 7.06368 6.78892 6.93568 6.82228L2.5168 7.97413C2.16653 8.06543 2.02633 8.48712 2.25221 8.76996L5.2112 12.4753C5.28928 12.5731 5.32786 12.6966 5.31933 12.8215L4.99065 17.6278C4.96514 18.0008 5.34312 18.2688 5.6867 18.1214L9.85556 16.3319C9.91848 16.3049 9.98557 16.2914 10.0527 16.2914V2.30273Z" fill="#FF6445"/>
</svg>
