<svg width="32" height="32" viewBox="0 0 32 32" fill="none" xmlns="http://www.w3.org/2000/svg">
<rect x="0.5" y="0.5" width="31" height="31" fill="#042228"/>
<rect x="0.5" y="0.5" width="31" height="31" stroke="#28444A"/>
<path d="M16 12.531C15.3145 12.531 14.6444 12.7341 14.0745 13.1146C13.5045 13.4951 13.0603 14.0359 12.798 14.6686C12.5356 15.3013 12.467 15.9975 12.6007 16.6692C12.7345 17.3409 13.0645 17.9579 13.5493 18.4421C14.034 18.9264 14.6515 19.2561 15.3238 19.3898C15.9962 19.5234 16.693 19.4548 17.3263 19.1927C17.9596 18.9306 18.5009 18.4868 18.8818 17.9174C19.2626 17.348 19.4659 16.6785 19.4659 15.9937C19.467 15.5386 19.3781 15.0879 19.2043 14.6673C19.0305 14.2467 18.7753 13.8645 18.4532 13.5427C18.1312 13.221 17.7487 12.966 17.3277 12.7924C16.9066 12.6187 16.4555 12.5299 16 12.531ZM16 18.2486C15.5536 18.2486 15.1172 18.1163 14.7461 17.8686C14.3749 17.6208 14.0856 17.2686 13.9148 16.8566C13.7439 16.4446 13.6992 15.9912 13.7863 15.5538C13.8734 15.1163 14.0884 14.7145 14.404 14.3992C14.7197 14.0838 15.1218 13.8691 15.5597 13.7821C15.9975 13.6951 16.4513 13.7397 16.8637 13.9104C17.2762 14.0811 17.6287 14.3701 17.8767 14.7409C18.1247 15.1117 18.257 15.5477 18.257 15.9937C18.257 16.5917 18.0192 17.1653 17.596 17.5881C17.1727 18.011 16.5986 18.2486 16 18.2486ZM20.4211 12.3875C20.4211 12.5545 20.3715 12.7178 20.2786 12.8567C20.1858 12.9956 20.0537 13.1038 19.8993 13.1677C19.7448 13.2316 19.5748 13.2484 19.4109 13.2158C19.2469 13.1832 19.0962 13.1028 18.978 12.9847C18.8598 12.8665 18.7793 12.7161 18.7467 12.5522C18.7141 12.3884 18.7308 12.2186 18.7948 12.0643C18.8588 11.91 18.9671 11.7781 19.1061 11.6853C19.2451 11.5925 19.4086 11.5429 19.5758 11.5429C19.8 11.5429 20.015 11.6319 20.1735 11.7903C20.332 11.9487 20.4211 12.1635 20.4211 12.3875ZM22.712 13.232C22.7365 12.1821 22.3445 11.1651 21.6215 10.4028C20.8626 9.67116 19.8441 9.27023 18.7896 9.288C17.6907 9.23733 14.3093 9.23733 13.2104 9.288C12.1598 9.26528 11.1425 9.65665 10.3785 10.3775C9.65545 11.1397 9.26345 12.1568 9.28804 13.2067C9.23732 14.3046 9.23732 17.6827 9.28804 18.7807C9.26345 19.8306 9.65545 20.8476 10.3785 21.6099C11.1425 22.3307 12.1598 22.7221 13.2104 22.6993C14.3262 22.7669 17.6738 22.7669 18.7896 22.6993C19.8405 22.7239 20.8585 22.3323 21.6215 21.6099C22.3445 20.8476 22.7365 19.8306 22.712 18.7807C22.7627 17.6827 22.7627 14.3046 22.712 13.2067V13.232ZM21.2749 19.9883C21.1601 20.2788 20.9868 20.5426 20.7658 20.7635C20.5448 20.9843 20.2807 21.1574 19.99 21.2721C18.6777 21.5371 17.3361 21.628 16 21.5423C14.6667 21.6281 13.3279 21.5373 12.0185 21.2721C11.7277 21.1574 11.4637 20.9843 11.2426 20.7635C11.0216 20.5426 10.8483 20.2788 10.7336 19.9883C10.3785 19.0931 10.4546 16.9818 10.4546 16.0021C10.4546 15.0224 10.3785 12.9026 10.7336 12.0159C10.8451 11.7225 11.0171 11.4559 11.2385 11.2333C11.4599 11.0107 11.7256 10.8371 12.0185 10.7237C13.3279 10.4585 14.6667 10.3676 16 10.4535C17.3361 10.3678 18.6777 10.4587 19.99 10.7237C20.2807 10.8384 20.5448 11.0115 20.7658 11.2323C20.9868 11.4531 21.1601 11.717 21.2749 12.0074C21.6299 12.9026 21.5454 15.014 21.5454 15.9937C21.5454 16.9733 21.6299 19.0931 21.2749 19.9799V19.9883Z" fill="#455D63"/>
</svg>
