<svg width="32" height="32" viewBox="0 0 32 32" fill="none" xmlns="http://www.w3.org/2000/svg">
<path fill-rule="evenodd" clip-rule="evenodd" d="M21.4697 14.7197C21.7626 14.4268 22.2374 14.4268 22.5303 14.7197L25.4991 17.6884C25.6397 17.8291 25.7188 18.0198 25.7188 18.2188C25.7188 18.4177 25.6397 18.6084 25.4991 18.7491L22.5303 21.7178C22.2374 22.0107 21.7626 22.0107 21.4697 21.7178C21.1768 21.4249 21.1768 20.9501 21.4697 20.6572L23.1581 18.9688H16C15.5858 18.9688 15.25 18.633 15.25 18.2188C15.25 17.8045 15.5858 17.4688 16 17.4688H23.1581L21.4697 15.7803C21.1768 15.4874 21.1768 15.0126 21.4697 14.7197Z" fill="#C3CBCC"/>
<path fill-rule="evenodd" clip-rule="evenodd" d="M10.4991 17.4678C10.2062 17.7607 9.73131 17.7607 9.43842 17.4678L6.46966 14.4991C6.32901 14.3584 6.24999 14.1677 6.24999 13.9687C6.24999 13.7698 6.32901 13.5791 6.46966 13.4384L9.43842 10.4697C9.73131 10.1768 10.2062 10.1768 10.4991 10.4697C10.792 10.7626 10.792 11.2374 10.4991 11.5303L8.81065 13.2187H15.9688C16.383 13.2187 16.7188 13.5545 16.7188 13.9687C16.7188 14.383 16.383 14.7187 15.9688 14.7187H8.81066L10.4991 16.4072C10.792 16.7001 10.792 17.1749 10.4991 17.4678Z" fill="#C3CBCC"/>
</svg>
