<svg width="32" height="32" viewBox="0 0 32 32" fill="none" xmlns="http://www.w3.org/2000/svg">
<rect x="0.5" y="0.5" width="31" height="31" fill="#042228"/>
<rect x="0.5" y="0.5" width="31" height="31" stroke="#28444A"/>
<path d="M12.3611 21.7857V14.0714C12.3611 13.8157 12.2616 13.5704 12.0845 13.3896C11.9074 13.2087 11.6671 13.1071 11.4167 13.1071C11.1662 13.1071 10.926 13.2087 10.7488 13.3896C10.5717 13.5704 10.4722 13.8157 10.4722 14.0714V21.7857C10.4722 22.0415 10.5717 22.2867 10.7488 22.4676C10.926 22.6484 11.1662 22.75 11.4167 22.75C11.6671 22.75 11.9074 22.6484 12.0845 22.4676C12.2616 22.2867 12.3611 22.0415 12.3611 21.7857Z" fill="#455D63"/>
<path d="M22.75 21.7857V17.4464C22.7497 16.6582 22.5392 15.8849 22.141 15.2096C21.7427 14.5343 21.1719 13.9825 20.4897 13.6135C19.8075 13.2444 19.0397 13.0721 18.2688 13.115C17.4979 13.1579 16.753 13.4144 16.1141 13.8569C16.0615 13.6269 15.928 13.4246 15.7389 13.2884C15.5499 13.1522 15.3185 13.0916 15.0886 13.1181C14.8588 13.1446 14.6464 13.2562 14.4918 13.432C14.3372 13.6077 14.2512 13.8352 14.25 14.0714V21.7857C14.25 22.0415 14.3495 22.2867 14.5266 22.4676C14.7037 22.6484 14.944 22.75 15.1944 22.75C15.4449 22.75 15.6852 22.6484 15.8623 22.4676C16.0394 22.2867 16.1389 22.0415 16.1389 21.7857V17.4464C16.1389 16.8071 16.3876 16.1939 16.8304 15.7418C17.2732 15.2897 17.8738 15.0357 18.5 15.0357C19.1262 15.0357 19.7268 15.2897 20.1696 15.7418C20.6124 16.1939 20.8611 16.8071 20.8611 17.4464V21.7857C20.8611 22.0415 20.9606 22.2867 21.1377 22.4676C21.3148 22.6484 21.5551 22.75 21.8056 22.75C22.056 22.75 22.2963 22.6484 22.4734 22.4676C22.6505 22.2867 22.75 22.0415 22.75 21.7857Z" fill="#455D63"/>
<path d="M12.5946 11.5C12.7502 11.2622 12.8333 10.9825 12.8333 10.6964C12.8333 10.3128 12.6841 9.94491 12.4184 9.67365C12.1527 9.40239 11.7924 9.25 11.4167 9.25C11.1365 9.25 10.8626 9.33483 10.6296 9.49377C10.3966 9.6527 10.2151 9.8786 10.1078 10.1429C10.0006 10.4072 9.97256 10.698 10.0272 10.9786C10.0819 11.2592 10.2168 11.5169 10.4149 11.7192C10.6131 11.9215 10.8655 12.0593 11.1403 12.1151C11.4151 12.1709 11.6999 12.1422 11.9588 12.0328C12.2177 11.9233 12.4389 11.7379 12.5946 11.5Z" fill="#455D63"/>
</svg>
