<svg width="168" height="48" viewBox="0 0 168 48" fill="none" xmlns="http://www.w3.org/2000/svg">
<path d="M32.7919 17.9193C32.2867 18.4531 31.6647 18.9557 30.8902 19.4563C30.2953 19.8406 29.6461 20.202 28.8487 20.5925C28.6379 20.6964 28.4166 20.8002 28.1744 20.9124V37.8492C28.1744 43.447 23.6092 48 17.996 48C17.4512 48 16.9001 47.9564 16.3573 47.8691H16.3448L16.3344 47.865C16.3051 47.8588 16.278 47.8546 16.2488 47.8504C16.2133 47.8442 16.1778 47.838 16.1423 47.8318C16.086 47.8235 16.0296 47.8131 15.9732 47.8006L15.9211 47.7902H15.9064L15.8939 47.7861C15.8042 47.7674 15.7123 47.7466 15.6225 47.7258L9.01365 46.1576C5.19569 45.252 2.10416 42.5247 0.741048 38.8669C0.452979 38.0901 0.24632 37.2821 0.127335 36.4658C0.0438367 35.9029 0 35.3213 0 34.7418V13.146C0 13.0879 0 13.0297 0.00417492 12.9716C0.0542739 10.7408 0.726436 8.58679 1.95177 6.74023C3.16668 4.90822 4.87004 3.45839 6.87818 2.55277C7.0076 2.49461 7.14746 2.43438 7.29358 2.37414C7.32072 2.36168 7.34577 2.35337 7.36665 2.34506C7.51485 2.2869 7.64845 2.23705 7.77787 2.19135C7.8739 2.15812 7.96992 2.12489 8.06803 2.09165C8.16823 2.05842 8.2726 2.02726 8.37906 1.99818C8.5064 1.95872 8.63165 1.92548 8.73811 1.89848L8.74854 1.89433H8.76107L8.76942 1.89017C8.84457 1.8694 8.91971 1.85071 8.99486 1.83409L15.6184 0.272102C15.9148 0.20148 16.2175 0.143321 16.5118 0.101779C16.5974 0.0893159 16.683 0.0789303 16.7686 0.0685447H16.7832L16.7894 0.0643905L16.8479 0.0581592C16.9335 0.0498507 17.0211 0.0394651 17.1067 0.0332338H17.1213L17.2487 0.0249254L17.3844 0.0145398C17.4532 0.0103856 17.5221 0.00623134 17.5889 0.00415423C17.6369 0.00415423 17.6766 0.00415423 17.7079 0.00415423C17.7351 0.00207711 17.7622 0.00207711 17.7914 0.00207711C17.8165 0.00207711 17.8394 0 17.8645 0H17.9981C18.0711 0 18.1463 0 18.2193 0.00207711H18.2486C20.8767 0.0685447 23.3545 1.13618 25.2228 3.00974C27.1265 4.9186 28.1744 7.45476 28.1744 10.1529V12.5478C28.5648 12.4024 28.9635 12.255 29.3726 12.122C29.4582 12.095 29.5438 12.0639 29.6315 12.0348C30.2118 11.8395 30.8673 11.6173 31.6083 11.6173C31.792 11.6173 31.9736 11.6318 32.1469 11.6588C32.7606 11.7565 33.3179 12.0784 33.6749 12.5395C35.0631 14.33 33.9066 16.7395 32.7919 17.9234V17.9193Z" fill="#FF6445"/>
<path d="M15.9106 46.5128C15.8835 46.5086 15.8584 46.5024 15.8313 46.4962L14.5433 46.1908L15.9106 46.5128Z" fill="#FF6445"/>
<path d="M9.30381 44.9467C5.07044 43.9413 1.97682 40.4892 1.3652 36.283C1.3652 36.3225 1.36937 36.3599 1.37355 36.3993C1.37772 36.4471 1.3819 36.4866 1.38816 36.5156C2.05197 40.5993 5.1268 43.9704 9.27667 44.9487L14.5433 46.1908L9.30381 44.9467Z" fill="white"/>
<path d="M7.39378 3.68895C3.76369 5.3278 1.34224 8.91289 1.25456 13.0131C1.30466 8.92951 3.75116 5.31949 7.39378 3.68895Z" fill="white"/>
<path d="M32.9213 13.8149C32.9255 16.2846 30.2786 17.5059 28.379 18.5112C27.6881 18.856 26.9867 19.1863 26.2895 19.5643C26.2769 19.5706 26.2644 19.5768 26.2519 19.583C25.3501 20.0483 24.2458 20.6029 24.2458 20.6029L6.75293 29.6217L4.49013 30.7932C2.41519 31.8671 1.17524 34.0833 1.40277 36.3993C1.40695 36.4471 1.41112 36.4866 1.41738 36.5156C2.0812 40.5993 5.15603 43.9704 9.3059 44.9487L15.9398 46.5128C21.5614 47.838 26.9512 43.5965 26.9512 37.8492V20.1127C29.4499 18.9952 33.748 16.9804 32.9213 13.8149ZM20.6638 29.4161L16.9543 25.3159L22.699 22.2043C22.699 22.2043 22.9725 27.8292 20.6638 29.4161Z" fill="white"/>
<path d="M31.5624 12.8636C30.0657 13.3725 28.2976 14.0351 26.9533 14.5336C25.5923 15.1131 24.2563 15.7487 22.9182 16.3697C19.9749 17.6264 15.4952 15.7071 12.7815 14.1202C10.0657 12.5333 7.39587 12.93 5.49837 14.5813L13.2804 21.8595L16.7164 20.3391L9.84028 26.1571C9.84028 26.1571 7.53155 27.2829 5.17899 25.6295C3.66975 24.5639 2.5133 24.8402 1.87871 25.1746C1.57394 25.3345 1.51758 25.7437 1.7639 25.9826L4.99738 29.1357C4.60911 29.3455 4.19997 29.441 3.80126 29.441C2.48616 29.441 1.28379 28.3941 1.28379 26.9381V13.146C1.28379 8.33753 4.60494 4.15838 9.30798 3.0492L15.9419 1.48514C21.5635 0.159938 26.9533 4.4014 26.9533 10.1488V14.3217C28.2913 13.8897 30.0051 13.0879 31.5624 12.8636Z" fill="white"/>
<path d="M47.8899 17.8943L43.168 30.706H40.0327L35.3108 17.8943H38.0767L41.6191 28.0805L45.1428 17.8943H47.892H47.8899Z" fill="#005069"/>
<path d="M59.4544 30.7039H56.8534V29.4181C56.5215 29.8585 56.0873 30.2054 55.5529 30.4546C55.0186 30.706 54.4362 30.8306 53.8099 30.8306C53.0104 30.8306 52.3028 30.6623 51.6891 30.3259C51.0733 29.9894 50.591 29.4929 50.2404 28.8386C49.8897 28.1843 49.7143 27.4033 49.7143 26.4977V20.5323H52.2965V26.1301C52.2965 26.9381 52.499 27.5591 52.906 27.9932C53.311 28.4274 53.8642 28.6455 54.5656 28.6455C55.2669 28.6455 55.8389 28.4294 56.2439 27.9932C56.6489 27.5591 56.8534 26.9381 56.8534 26.1301V20.5323H59.4544V30.7039Z" fill="#005069"/>
<path d="M71.7955 26.3918H64.3244C64.385 27.1271 64.6438 27.7004 65.0989 28.1179C65.554 28.5333 66.1134 28.741 66.7772 28.741C67.7354 28.741 68.418 28.3318 68.825 27.5114H71.6097C71.3153 28.4897 70.7496 29.2956 69.9126 29.925C69.0755 30.5564 68.0506 30.8701 66.8315 30.8701C65.8483 30.8701 64.9653 30.654 64.1846 30.2178C63.4039 29.7837 62.7943 29.1689 62.3581 28.3734C61.9218 27.5778 61.7026 26.6597 61.7026 25.6212C61.7026 24.5826 61.9176 23.6459 62.3476 22.8503C62.7776 22.0548 63.3809 21.4441 64.1554 21.0142C64.9298 20.5863 65.8212 20.3723 66.8294 20.3723C67.8376 20.3723 68.6705 20.58 69.4387 20.9975C70.2069 21.413 70.8039 22.0049 71.2277 22.7693C71.6514 23.5337 71.8643 24.4123 71.8643 25.4031C71.8643 25.7707 71.8393 26.101 71.7913 26.3939L71.7955 26.3918ZM69.1945 24.6657C69.182 24.0052 68.9419 23.4755 68.4743 23.0788C68.0067 22.6821 67.4348 22.4827 66.7584 22.4827C66.1197 22.4827 65.5811 22.6758 65.1448 23.0622C64.7085 23.4485 64.4413 23.9823 64.3432 24.6678H69.1945V24.6657Z" fill="#005069"/>
<path d="M76.701 17.1216V30.7039H74.1188V17.1216H76.701Z" fill="#005069"/>
<path d="M81.498 30.2178C80.711 29.7837 80.0931 29.1689 79.6443 28.3734C79.1955 27.5778 78.9722 26.6597 78.9722 25.6212C78.9722 24.5826 79.2018 23.6645 79.6631 22.869C80.1244 22.0735 80.7548 21.4587 81.5543 21.0245C82.3538 20.5904 83.2452 20.3723 84.2284 20.3723C85.2116 20.3723 86.1029 20.5904 86.9024 21.0245C87.7019 21.4587 88.3323 22.0735 88.7936 22.869C89.255 23.6645 89.4846 24.5826 89.4846 25.6212C89.4846 26.6597 89.2487 27.5799 88.7749 28.3734C88.301 29.1689 87.6622 29.7837 86.8565 30.2178C86.0507 30.652 85.151 30.8701 84.1532 30.8701C83.1554 30.8701 82.2829 30.654 81.498 30.2178ZM85.4725 28.2924C85.8837 28.0659 86.2135 27.7274 86.4599 27.2746C86.7062 26.8218 86.8293 26.2713 86.8293 25.6233C86.8293 24.6574 86.5747 23.9138 86.0633 23.3924C85.5518 22.8732 84.9298 22.6115 84.1908 22.6115C83.4518 22.6115 82.834 22.8711 82.3371 23.3924C81.8403 23.9138 81.5898 24.6553 81.5898 25.6233C81.5898 26.5912 81.832 27.3327 82.3184 27.8541C82.8047 28.3734 83.4163 28.6351 84.1532 28.6351C84.6208 28.6351 85.0592 28.5229 85.4725 28.2965V28.2924Z" fill="#005069"/>
<path d="M98.3939 30.706L95.5528 25.7126H94.3359V30.706H91.7537V17.8943H96.5861C97.5819 17.8943 98.4314 18.0688 99.1307 18.4178C99.8321 18.7667 100.358 19.2382 100.707 19.8302C101.057 20.4243 101.233 21.0868 101.233 21.8221C101.233 22.6655 100.986 23.4278 100.496 24.107C100.003 24.7862 99.2727 25.2535 98.2999 25.5111L101.381 30.706H98.3918H98.3939ZM94.3359 23.785H96.4943C97.1957 23.785 97.7175 23.6168 98.062 23.2803C98.4064 22.9438 98.5776 22.4764 98.5776 21.8762C98.5776 21.2759 98.4043 20.8334 98.062 20.5094C97.7175 20.1854 97.1957 20.0234 96.4943 20.0234H94.3359V23.7871V23.785Z" fill="#005069"/>
<path d="M113.371 26.3918H105.9C105.961 27.1271 106.22 27.7004 106.675 28.1179C107.13 28.5333 107.689 28.741 108.353 28.741C109.311 28.741 109.994 28.3318 110.401 27.5114H113.186C112.891 28.4897 112.326 29.2956 111.489 29.925C110.651 30.5564 109.626 30.8701 108.407 30.8701C107.424 30.8701 106.541 30.654 105.761 30.2178C104.98 29.7837 104.37 29.1689 103.934 28.3734C103.498 27.5778 103.279 26.6597 103.279 25.6212C103.279 24.5826 103.494 23.6459 103.924 22.8503C104.354 22.0548 104.957 21.4441 105.731 21.0142C106.506 20.5863 107.397 20.3723 108.405 20.3723C109.414 20.3723 110.246 20.58 111.015 20.9975C111.783 21.413 112.38 22.0049 112.804 22.7693C113.227 23.5337 113.44 24.4123 113.44 25.4031C113.44 25.7707 113.415 26.101 113.367 26.3939L113.371 26.3918ZM110.77 24.6657C110.758 24.0052 110.518 23.4755 110.05 23.0788C109.583 22.6821 109.011 22.4827 108.334 22.4827C107.696 22.4827 107.157 22.6758 106.721 23.0622C106.284 23.4485 106.017 23.9823 105.919 24.6678H110.77V24.6657Z" fill="#005069"/>
<path d="M117.356 30.4214C116.693 30.1223 116.167 29.7152 115.78 29.2001C115.392 28.687 115.181 28.1179 115.144 27.4927H117.745C117.795 27.8832 117.987 28.2093 118.325 28.4648C118.663 28.7223 119.085 28.8511 119.588 28.8511C120.091 28.8511 120.465 28.7535 120.74 28.5582C121.018 28.363 121.156 28.1116 121.156 27.8063C121.156 27.476 120.986 27.2289 120.648 27.0627C120.31 26.8965 119.772 26.7179 119.035 26.5206C118.273 26.3378 117.649 26.1467 117.162 25.9514C116.676 25.7562 116.258 25.4571 115.908 25.0521C115.557 24.6491 115.382 24.1049 115.382 23.4194C115.382 22.8566 115.544 22.3435 115.87 21.8782C116.196 21.413 116.663 21.0474 117.273 20.7774C117.882 20.5094 118.598 20.3723 119.421 20.3723C120.638 20.3723 121.609 20.6756 122.335 21.2821C123.061 21.8886 123.46 22.7049 123.533 23.7331H121.062C121.024 23.3301 120.855 23.0082 120.554 22.7693C120.254 22.5304 119.851 22.4121 119.346 22.4121C118.878 22.4121 118.519 22.4972 118.266 22.6696C118.014 22.842 117.889 23.0788 117.889 23.3862C117.889 23.7289 118.06 23.9886 118.404 24.1672C118.749 24.3458 119.283 24.5245 120.01 24.7093C120.748 24.8921 121.356 25.0832 121.836 25.2785C122.316 25.4737 122.732 25.777 123.08 26.1882C123.431 26.5974 123.612 27.1396 123.625 27.8125C123.625 28.4004 123.462 28.9259 123.137 29.3911C122.811 29.8564 122.343 30.2199 121.734 30.4837C121.124 30.7475 120.414 30.8784 119.602 30.8784C118.79 30.8784 118.016 30.7288 117.352 30.4297L117.356 30.4214Z" fill="#005069"/>
<path d="M135.544 26.3918H128.073C128.134 27.1271 128.393 27.7004 128.848 28.1179C129.303 28.5333 129.862 28.741 130.526 28.741C131.484 28.741 132.167 28.3318 132.574 27.5114H135.359C135.064 28.4897 134.499 29.2956 133.662 29.925C132.824 30.5564 131.799 30.8701 130.58 30.8701C129.597 30.8701 128.714 30.654 127.934 30.2178C127.153 29.7837 126.543 29.1689 126.107 28.3734C125.671 27.5778 125.452 26.6597 125.452 25.6212C125.452 24.5826 125.667 23.6459 126.097 22.8503C126.527 22.0548 127.13 21.4441 127.904 21.0142C128.679 20.5863 129.57 20.3723 130.578 20.3723C131.587 20.3723 132.419 20.58 133.188 20.9975C133.956 21.413 134.553 22.0049 134.977 22.7693C135.4 23.5337 135.613 24.4123 135.613 25.4031C135.613 25.7707 135.588 26.101 135.54 26.3939L135.544 26.3918ZM132.943 24.6657C132.931 24.0052 132.691 23.4755 132.223 23.0788C131.756 22.6821 131.184 22.4827 130.507 22.4827C129.869 22.4827 129.33 22.6758 128.894 23.0622C128.457 23.4485 128.19 23.9823 128.092 24.6678H132.943V24.6657Z" fill="#005069"/>
<path d="M141.75 20.848C142.285 20.5426 142.896 20.3889 143.585 20.3889V23.0871H142.903C142.091 23.0871 141.479 23.2761 141.068 23.6562C140.657 24.0364 140.45 24.6969 140.45 25.6378V30.7039H137.868V20.5364H140.45V22.115C140.782 21.5771 141.216 21.1554 141.75 20.848Z" fill="#005069"/>
<path d="M149.95 28.3381L152.532 20.5385H155.281L151.501 30.706H148.366L144.602 20.5385H147.368L149.95 28.3381Z" fill="#005069"/>
<path d="M157.062 22.8503C157.473 22.0548 158.033 21.4441 158.74 21.0142C159.448 20.5863 160.237 20.3723 161.109 20.3723C161.871 20.3723 162.539 20.526 163.111 20.8314C163.683 21.1367 164.141 21.523 164.485 21.9883V20.5385H167.086V30.706H164.485V29.2187C164.153 29.6965 163.694 30.0911 163.111 30.4027C162.527 30.7143 161.855 30.8701 161.091 30.8701C160.231 30.8701 159.446 30.6499 158.738 30.2095C158.03 29.7692 157.471 29.1481 157.06 28.3464C156.649 27.5446 156.442 26.6244 156.442 25.5838C156.442 24.5432 156.649 23.6438 157.06 22.8482L157.062 22.8503ZM164.115 24.0156C163.869 23.569 163.537 23.2263 163.12 22.9874C162.702 22.7485 162.253 22.6301 161.773 22.6301C161.293 22.6301 160.851 22.7465 160.446 22.9791C160.041 23.2117 159.711 23.5503 159.458 23.9969C159.206 24.4435 159.081 24.9731 159.081 25.5838C159.081 26.1945 159.206 26.7304 159.458 27.1894C159.711 27.6484 160.043 27.9995 160.454 28.2446C160.865 28.4897 161.306 28.6122 161.773 28.6122C162.241 28.6122 162.702 28.4918 163.12 28.255C163.537 28.0161 163.869 27.6734 164.115 27.2268C164.362 26.7802 164.485 26.2443 164.485 25.6212C164.485 24.9981 164.362 24.4622 164.115 24.0156Z" fill="#005069"/>
</svg>
