<svg width="42" height="22" viewBox="0 0 42 22" fill="none" xmlns="http://www.w3.org/2000/svg">
<g clip-path="url(#clip0_1253_38319)">
<path d="M40.6 0.662109H1.4C0.626801 0.662109 0 1.28891 0 2.06211V20.2997C0 21.0729 0.626801 21.6997 1.4 21.6997H40.6C41.3732 21.6997 42 21.0729 42 20.2997V2.06211C42 1.28891 41.3732 0.662109 40.6 0.662109Z" fill="white"/>
<path d="M23.4788 11.3261C23.4788 15.4129 20.1033 18.7253 15.9394 18.7253C11.7755 18.7253 8.40039 15.4127 8.40039 11.3261C8.40039 7.23959 11.7756 3.92676 15.9394 3.92676C20.1031 3.92676 23.4788 7.23973 23.4788 11.3261Z" fill="#D9222A"/>
<path d="M26.0621 3.92676C24.1141 3.92676 22.339 4.65209 21.001 5.84216C20.7284 6.08491 20.474 6.34659 20.2397 6.6252H21.7629C21.9715 6.87406 22.1635 7.13585 22.3377 7.40892H19.665C19.5043 7.66127 19.3593 7.92293 19.2307 8.1925H22.7718C22.8934 8.44744 22.9999 8.70903 23.091 8.97587H18.9115C18.8237 9.23291 18.7506 9.4945 18.6924 9.75945H23.3099C23.4228 10.2743 23.4798 10.7995 23.4796 11.3262C23.4796 12.1479 23.343 12.9385 23.091 13.6767H18.9114C19.0023 13.9437 19.1088 14.2053 19.2304 14.4603H22.7718C22.643 14.7299 22.4979 14.9916 22.3371 15.244H19.6649C19.8394 15.5173 20.0316 15.779 20.2397 16.027H21.7625C21.5286 16.3062 21.2741 16.5681 21.0011 16.8108C22.3392 18.0007 24.114 18.7257 26.0621 18.7257C30.2259 18.7256 33.6015 15.413 33.6015 11.3264C33.6015 7.24008 30.2259 3.92676 26.0621 3.92676Z" fill="#EE9F2D"/>
<path d="M12.3984 13.2743H11.5797L12.0489 10.3893L11.002 13.2743H10.4442L10.3752 10.4058L9.88243 13.2743H9.11621L9.75622 9.52148H10.9331L10.9662 11.8448L11.7601 9.52148H13.0314L12.3984 13.2743Z" fill="white"/>
<path d="M14.4148 11.9149C14.3291 11.9052 14.2911 11.9026 14.2323 11.9026C13.7684 11.9026 13.5337 12.0587 13.5337 12.367C13.5337 12.5568 13.6483 12.6781 13.8268 12.6781C14.1605 12.678 14.4008 12.3665 14.4148 11.9149ZM15.0104 13.2746H14.3322L14.3476 12.9587C14.141 13.2083 13.8646 13.3276 13.49 13.3276C13.0461 13.3276 12.7422 12.9876 12.7422 12.4937C12.7422 11.7505 13.271 11.3172 14.1793 11.3172C14.272 11.3172 14.391 11.3254 14.5127 11.3408C14.538 11.2401 14.5447 11.197 14.5447 11.1426C14.5447 10.9402 14.4022 10.8651 14.0198 10.8651C13.6193 10.8607 13.2892 10.9588 13.1534 11.0021C13.162 10.9516 13.2668 10.3162 13.2668 10.3162C13.6746 10.1984 13.9439 10.1543 14.2463 10.1543C14.9493 10.1543 15.3217 10.4642 15.321 11.0489C15.3222 11.2064 15.2956 11.3998 15.2545 11.6539C15.1836 12.096 15.031 13.0441 15.0104 13.2746ZM25.9884 9.62268L25.8542 10.4375C25.5623 10.2934 25.3502 10.2346 25.1232 10.2346C24.5121 10.2346 24.0837 10.8142 24.0837 11.6406C24.0837 12.2103 24.3716 12.5549 24.8474 12.5549C25.049 12.5549 25.2714 12.4935 25.5426 12.3621L25.399 13.2175C25.0973 13.2982 24.9027 13.3276 24.6755 13.3276C23.7945 13.3276 23.2454 12.7058 23.2454 11.7073C23.2454 10.3655 24.0039 9.42773 25.0887 9.42773C25.446 9.42773 25.8683 9.57648 25.9884 9.62268ZM27.3089 11.9149C27.2232 11.9052 27.1854 11.9026 27.1263 11.9026C26.6626 11.9026 26.4277 12.0587 26.4277 12.367C26.4277 12.5568 26.5423 12.6781 26.721 12.6781C27.0544 12.678 27.2948 12.3665 27.3089 11.9149ZM27.9044 13.2746H27.2261L27.2416 12.9587C27.0349 13.2083 26.7586 13.3276 26.384 13.3276C25.9403 13.3276 25.6363 12.9876 25.6363 12.4937C25.6363 11.7505 26.1652 11.3172 27.0731 11.3172C27.1661 11.3172 27.2849 11.3254 27.4066 11.3408C27.4319 11.2401 27.4387 11.197 27.4387 11.1426C27.4387 10.9402 27.2962 10.8651 26.9139 10.8651C26.5135 10.8607 26.1832 10.9588 26.0474 11.0021C26.056 10.9516 26.161 10.3162 26.161 10.3162C26.5688 10.1984 26.8379 10.1543 27.1403 10.1543C27.8435 10.1543 28.2157 10.4642 28.2148 11.0489C28.2162 11.2064 28.1898 11.3998 28.1485 11.6539C28.0779 12.096 27.9248 13.0441 27.9044 13.2746ZM18.648 13.2283C18.4238 13.2976 18.2492 13.3276 18.06 13.3276C17.6416 13.3276 17.4132 13.0916 17.4132 12.6571C17.4074 12.5219 17.4736 12.1674 17.5256 11.8435C17.5726 11.558 17.8803 9.76044 17.8803 9.76044H18.6937L18.5989 10.2226H19.0164L18.9053 10.9558H18.4863C18.3918 11.5367 18.2569 12.2592 18.2555 12.3553C18.2555 12.5132 18.3413 12.5813 18.5357 12.5813C18.6289 12.5813 18.7011 12.5723 18.7564 12.5528L18.648 13.2283ZM21.1425 13.204C20.8632 13.2877 20.5931 13.3282 20.3075 13.3276C19.3968 13.3268 18.9221 12.8599 18.9221 11.9659C18.9221 10.9222 19.526 10.1543 20.3459 10.1543C21.0166 10.1543 21.445 10.5842 21.445 11.259C21.445 11.483 21.4156 11.7015 21.345 12.0098H19.7248C19.6699 12.4525 19.9587 12.6372 20.432 12.6372C20.723 12.6372 20.9859 12.5781 21.2777 12.4445L21.1425 13.204ZM20.685 11.3938C20.6899 11.3305 20.7715 10.849 20.3065 10.849C20.0475 10.849 19.8622 11.0435 19.7867 11.3938H20.685ZM15.5014 11.1876C15.5014 11.5736 15.6921 11.8395 16.1247 12.0399C16.4562 12.1927 16.5075 12.2382 16.5075 12.3766C16.5075 12.567 16.3612 12.6528 16.0376 12.6528C15.7933 12.6528 15.5661 12.6154 15.304 12.5324C15.304 12.5324 15.1967 13.2051 15.1918 13.2373C15.3775 13.2772 15.5436 13.3136 16.0434 13.3276C16.9072 13.3276 17.3058 13.0049 17.3058 12.3075C17.3058 11.888 17.139 11.6418 16.7288 11.4569C16.3858 11.302 16.3461 11.268 16.3461 11.1252C16.3461 10.9603 16.4824 10.8755 16.7469 10.8755C16.9073 10.8755 17.1268 10.8928 17.335 10.9219L17.4514 10.2137C17.2397 10.1807 16.9184 10.1543 16.7313 10.1543C15.8155 10.1543 15.4988 10.6233 15.5014 11.1876ZM32.2363 13.2746H31.4619L31.5004 12.9905C31.2759 13.2261 31.0458 13.3276 30.7458 13.3276C30.1508 13.3276 29.7576 12.8242 29.7576 12.0611C29.7576 11.0458 30.3674 10.1899 31.0893 10.1899C31.4068 10.1899 31.6471 10.3172 31.8707 10.6061L32.0524 9.52167H32.8596L32.2363 13.2746ZM31.029 12.5693C31.4101 12.5693 31.6779 12.1454 31.6779 11.5408C31.6779 11.153 31.5254 10.9426 31.2442 10.9426C30.873 10.9426 30.6093 11.3679 30.6093 11.968C30.6093 12.3673 30.7504 12.5693 31.029 12.5693ZM28.6416 10.2226C28.5392 11.1673 28.3572 12.1242 28.2148 13.0695L28.1774 13.2746H28.996C29.2888 11.4082 29.3596 11.0438 29.8187 11.0895C29.8918 10.7075 30.0279 10.3729 30.1294 10.204C29.7866 10.134 29.5952 10.3242 29.3445 10.6854C29.3643 10.5293 29.4006 10.3776 29.3934 10.2226H28.6416ZM21.9039 10.2226C21.8012 11.1673 21.6192 12.1242 21.4769 13.0695L21.4397 13.2746H22.2587C22.5511 11.4082 22.6218 11.0438 23.0806 11.0895C23.1541 10.7075 23.2903 10.3729 23.3914 10.204C23.0489 10.134 22.8573 10.3242 22.6069 10.6854C22.6267 10.5293 22.6626 10.3776 22.6557 10.2226H21.9039ZM32.5959 13.0357C32.5959 12.9032 32.7049 12.7966 32.8393 12.7966C32.9736 12.7965 33.0826 12.9032 33.0827 13.035C33.0826 13.1669 32.9737 13.2745 32.8393 13.2746C32.7049 13.2745 32.5959 13.1676 32.5959 13.0357ZM32.8393 13.2172C32.9415 13.2173 33.0243 13.136 33.0243 13.0358C33.0243 12.9356 32.9416 12.8541 32.8395 12.854C32.7372 12.854 32.6542 12.9354 32.6541 13.0357C32.6542 13.136 32.7371 13.2172 32.8393 13.2172ZM32.8064 13.1401H32.7565V12.9305H32.847C32.8657 12.9305 32.8851 12.9309 32.9014 12.941C32.9188 12.9527 32.9289 12.9726 32.9289 12.9935C32.9289 13.0173 32.9146 13.0394 32.8915 13.0479L32.9311 13.14H32.8757L32.8429 13.0572H32.8064V13.1401ZM32.8064 13.0214H32.8339C32.8442 13.0214 32.8554 13.0222 32.8645 13.0173C32.8726 13.0122 32.8768 13.0024 32.8768 12.9931C32.8765 12.9844 32.872 12.9765 32.8648 12.9715C32.8563 12.9667 32.8421 12.968 32.8327 12.968H32.8064V13.0214Z" fill="white"/>
</g>
<defs>
<clipPath id="clip0_1253_38319">
<rect width="42" height="21.7" fill="white"/>
</clipPath>
</defs>
</svg>
