<svg width="36" height="36" viewBox="0 0 36 36" fill="none" xmlns="http://www.w3.org/2000/svg">
<rect width="36" height="36" rx="18" fill="#F5F7F7"/>
<path d="M11.25 19.5173C11.25 19.3445 11.25 19.1544 11.25 18.947C11.4593 16.5276 12.6279 14.212 14.7558 12L15.8547 12.7776C14.4244 14.2293 13.6919 15.4389 13.657 16.4067C13.6919 16.8906 14.1105 17.2362 14.9128 17.4435C15.0523 17.4781 15.2093 17.53 15.3837 17.5991C16.6744 18.0484 17.3198 18.9297 17.3198 20.2431C17.3198 20.6578 17.2326 21.0899 17.0581 21.5392C16.5349 22.6797 15.6628 23.25 14.4419 23.25C14.093 23.25 13.7442 23.1982 13.3953 23.0945C11.9651 22.6452 11.25 21.4528 11.25 19.5173ZM18.6802 19.5173C18.6802 19.3445 18.6802 19.1544 18.6802 18.947C18.8895 16.5276 20.0581 14.212 22.186 12L23.2849 12.7776C21.8895 14.1947 21.1744 15.4044 21.1395 16.4067C21.1744 16.8906 21.5756 17.2362 22.343 17.4435C22.4826 17.4781 22.6395 17.53 22.814 17.5991C24.1047 18.0484 24.75 18.9297 24.75 20.2431C24.75 20.6578 24.6628 21.0899 24.4884 21.5392C23.9651 22.6797 23.093 23.25 21.8721 23.25C21.5233 23.25 21.1744 23.1982 20.8256 23.0945C19.3953 22.6452 18.6802 21.4528 18.6802 19.5173Z" fill="#FF6445"/>
</svg>
