<svg width="1440" height="284" viewBox="0 0 1440 284" fill="none" xmlns="http://www.w3.org/2000/svg">
<g clip-path="url(#clip0_1275_37686)">
<rect width="1440" height="284" fill="white"/>
<rect width="1440" height="284" fill="#FF6445"/>
<path d="M1908 141V283.646H0V141C5.05 144.813 8.61 150.746 8.9 157.483C16.76 157.418 22.82 163.566 23.92 171.909C29.67 169.36 36.56 170.024 41.8 173.612C47.03 177.2 50.74 183.84 51 190.501C56.23 187.438 62.61 189.013 65.23 194.732C70.42 189.281 78.37 187.031 85.4 189.013C92.44 190.994 97.62 196.092 99.63 203.578C102.34 201.426 106.02 200.751 109.24 201.833C112.45 202.914 115.13 205.71 116.2 209.137C119.81 206.588 124.51 205.945 128.59 207.412C133.47 209.18 136.88 213.806 138.33 218.904C142.29 216.527 147.31 216.398 151.12 219.226C154.89 222.021 157.11 227.761 156.08 232.549C159.02 232.367 162.02 233.577 164.11 235.794C166.21 238.022 167.07 241.577 166.94 244.737C169.34 241.824 173.06 240.239 176.67 240.613C180.28 240.967 183.33 243.334 185.18 246.675C186.67 244.737 189.2 243.805 191.49 244.34C193.77 244.876 195.72 246.857 196.32 249.278C198.15 246.654 201.9 246.118 204.52 247.778C203.71 243.162 205.75 238.107 209.46 235.59C213.17 233.074 218.09 232.506 221.64 235.269C222.23 233.181 223.88 231.467 225.85 230.889C227.82 230.332 229.22 230.193 230.71 231.692C232.54 224.87 239.29 219.986 245.89 220.714C252.48 221.453 257.79 227.89 258.28 234.969C262.22 232.774 267.38 233.363 270.78 236.426C274.18 239.489 275.81 245.176 274.47 249.706C277.7 248.035 282.04 249.471 283.81 252.801C285.6 251.752 288.17 252.298 289.7 253.744C290.28 248.796 294.84 244.844 299.49 245.069C298.86 242.916 301.73 240.185 303.7 241.224C302.9 237.422 303.96 233.234 306.44 230.396C308.92 227.558 312.96 225.48 316.55 226.059C316.49 220.232 321.2 214.813 326.62 214.47C332.05 214.117 337.65 218.604 338.24 224.398C337.93 221.432 342.92 218.551 345.16 222.096C345.62 214.117 351.19 204.232 362.48 204.232C367.49 204.232 373.68 206.299 376.96 210.957C379.25 205.474 386.73 202.968 392 204.981C396.18 198.909 405.86 198.641 410.33 204.467C412.48 197.688 417.61 191.904 423.43 188.413C429.26 184.922 436.31 183.829 442.82 185.414V185.361C442.81 181.28 445.62 177.81 449.4 177.253C451.01 177.028 452.64 177.071 454.23 177.425C452.98 173.398 453.74 170.067 456.32 167.786C458.91 165.494 463.96 164.712 466.4 168.407C466.15 167.368 466.28 166.126 466.67 164.787C469.75 154.141 484.21 154.141 487.27 164.787C487.66 166.126 487.78 167.368 487.54 168.407C489.98 164.712 495.03 165.494 497.62 167.786C500.2 170.067 500.96 173.398 499.71 177.425C501.29 177.071 502.93 177.028 504.54 177.253C508.32 177.799 511.13 181.28 511.12 185.361V185.414C517.64 183.829 524.68 184.922 530.51 188.413C536.33 191.904 541.46 197.699 543.61 204.467C548.08 198.641 557.76 198.909 561.94 204.981C567.21 202.968 574.69 205.474 576.98 210.957C580.27 206.288 586.45 204.232 591.46 204.232C602.75 204.232 608.32 214.117 608.78 222.096C611.03 218.551 616.02 221.432 615.7 224.398C616.29 218.615 621.89 214.117 627.32 214.47C632.75 214.813 637.46 220.232 637.39 226.059C640.99 225.469 645.02 227.547 647.5 230.396C649.98 233.245 651.04 237.422 650.24 241.224C652.21 240.185 655.08 242.905 654.45 245.069C659.11 244.855 663.67 248.796 664.24 253.744C665.77 252.298 668.34 251.752 670.13 252.801C671.91 249.471 676.24 248.035 679.47 249.706C678.12 245.165 679.76 239.478 683.16 236.426C686.56 233.363 691.72 232.774 695.66 234.969C696.15 227.89 701.46 221.443 708.05 220.714C714.64 219.997 721.4 224.88 723.23 231.692C724.72 230.193 726.12 230.332 728.09 230.889C730.06 231.467 731.71 233.181 732.3 235.269C735.85 232.506 740.77 233.074 744.48 235.59C748.19 238.097 750.24 243.152 749.42 247.778C752.04 246.118 755.79 246.654 757.62 249.278C758.22 246.857 760.17 244.876 762.45 244.34C764.74 243.816 767.28 244.737 768.76 246.675C770.61 243.323 773.66 240.967 777.27 240.613C780.87 240.249 784.6 241.824 787 244.737C786.86 241.588 787.73 238.022 789.83 235.794C791.92 233.577 794.91 232.367 797.86 232.549C796.81 227.772 799.05 222.021 802.82 219.226C806.63 216.398 811.65 216.527 815.61 218.904C817.05 213.806 820.47 209.169 825.35 207.412C829.44 205.945 834.14 206.588 837.74 209.137C838.81 205.71 841.48 202.914 844.7 201.833C847.92 200.74 851.6 201.415 854.31 203.578C856.31 196.092 861.5 190.994 868.54 189.013C875.57 187.031 883.52 189.281 888.71 194.732C891.33 189.013 897.71 187.438 902.94 190.501C903.2 183.84 906.91 177.2 912.14 173.612C917.38 170.024 924.28 169.36 930.02 171.909C931.11 163.566 937.18 157.408 945.04 157.483C945.04 157.418 945.04 157.343 945.05 157.279C945.69 145.541 962.2 145.541 962.84 157.279C962.84 157.343 962.84 157.418 962.85 157.483C970.71 157.418 976.77 163.566 977.87 171.909C983.62 169.36 990.51 170.024 995.75 173.612C1000.98 177.2 1004.69 183.84 1004.95 190.501C1010.18 187.438 1016.56 189.013 1019.18 194.732C1024.37 189.281 1032.32 187.031 1039.36 189.013C1046.4 190.994 1051.58 196.092 1053.59 203.578C1056.3 201.426 1059.98 200.751 1063.2 201.833C1066.41 202.914 1069.09 205.71 1070.16 209.137C1073.77 206.588 1078.47 205.945 1082.55 207.412C1087.43 209.18 1090.84 213.806 1092.29 218.904C1096.25 216.527 1101.27 216.398 1105.08 219.226C1108.85 222.021 1111.07 227.761 1110.04 232.549C1112.98 232.367 1115.98 233.577 1118.07 235.794C1120.17 238.022 1121.03 241.577 1120.9 244.737C1123.3 241.824 1127.02 240.239 1130.63 240.613C1134.24 240.967 1137.29 243.334 1139.14 246.675C1140.63 244.737 1143.16 243.805 1145.45 244.34C1147.73 244.876 1149.68 246.857 1150.28 249.278C1152.11 246.654 1155.86 246.118 1158.48 247.778C1157.67 243.162 1159.71 238.107 1163.42 235.59C1167.13 233.074 1172.05 232.506 1175.6 235.269C1176.19 233.181 1177.84 231.467 1179.81 230.889C1181.78 230.332 1183.18 230.193 1184.67 231.692C1186.5 224.87 1193.25 219.986 1199.85 220.714C1206.44 221.453 1211.75 227.89 1212.24 234.969C1216.18 232.774 1221.34 233.363 1224.74 236.426C1228.14 239.489 1229.77 245.176 1228.43 249.706C1231.66 248.035 1236 249.471 1237.77 252.801C1239.56 251.752 1242.13 252.298 1243.66 253.744C1244.24 248.796 1248.8 244.844 1253.45 245.069C1252.82 242.916 1255.69 240.185 1257.66 241.224C1256.86 237.422 1257.92 233.234 1260.4 230.396C1262.88 227.558 1266.92 225.48 1270.51 226.059C1270.45 220.232 1275.16 214.813 1280.58 214.47C1286.01 214.117 1291.61 218.604 1292.2 224.398C1291.89 221.432 1296.88 218.551 1299.12 222.096C1299.58 214.117 1305.15 204.232 1316.44 204.232C1321.45 204.232 1327.64 206.299 1330.92 210.957C1333.21 205.474 1340.69 202.968 1345.96 204.981C1350.14 198.909 1359.82 198.641 1364.29 204.467C1366.44 197.688 1371.57 191.904 1377.39 188.413C1383.22 184.922 1390.27 183.829 1396.78 185.414V185.361C1396.77 181.28 1399.58 177.81 1403.36 177.253C1404.97 177.028 1406.6 177.071 1408.19 177.425C1406.94 173.398 1407.7 170.067 1410.28 167.786C1412.87 165.494 1417.92 164.712 1420.36 168.407C1420.11 167.368 1420.24 166.126 1420.63 164.787C1423.7 154.141 1438.17 154.141 1441.23 164.787C1441.62 166.126 1441.74 167.368 1441.5 168.407C1443.94 164.712 1448.99 165.494 1451.58 167.786C1454.16 170.067 1454.92 173.398 1453.67 177.425C1455.25 177.071 1456.89 177.028 1458.5 177.253C1462.28 177.799 1465.09 181.28 1465.08 185.361V185.414C1471.6 183.829 1478.64 184.922 1484.47 188.413C1490.29 191.904 1495.42 197.699 1497.57 204.467C1502.04 198.641 1511.72 198.909 1515.9 204.981C1521.17 202.968 1528.65 205.474 1530.94 210.957C1534.23 206.288 1540.41 204.232 1545.42 204.232C1556.71 204.232 1562.28 214.117 1562.74 222.096C1564.99 218.551 1569.98 221.432 1569.66 224.398C1570.25 218.615 1575.85 214.117 1581.28 214.47C1586.71 214.813 1591.42 220.232 1591.35 226.059C1594.95 225.469 1598.98 227.547 1601.46 230.396C1603.94 233.234 1605 237.422 1604.2 241.224C1606.17 240.185 1609.04 242.905 1608.41 245.069C1613.07 244.855 1617.63 248.796 1618.2 253.744C1619.73 252.298 1622.3 251.752 1624.09 252.801C1625.87 249.471 1630.2 248.035 1633.43 249.706C1632.08 245.165 1633.72 239.478 1637.12 236.426C1640.52 233.363 1645.68 232.774 1649.62 234.969C1650.11 227.89 1655.42 221.443 1662.01 220.714C1668.6 219.997 1675.36 224.88 1677.19 231.692C1678.68 230.193 1680.08 230.332 1682.05 230.889C1684.02 231.467 1685.67 233.181 1686.26 235.269C1689.81 232.506 1694.73 233.074 1698.44 235.59C1702.15 238.097 1704.2 243.152 1703.38 247.778C1706 246.118 1709.75 246.654 1711.58 249.278C1712.18 246.857 1714.13 244.876 1716.41 244.34C1718.7 243.816 1721.24 244.737 1722.72 246.675C1724.57 243.323 1727.62 240.967 1731.23 240.613C1734.83 240.249 1738.56 241.824 1740.96 244.737C1740.82 241.588 1741.69 238.022 1743.79 235.794C1745.88 233.577 1748.87 232.367 1751.82 232.549C1750.77 227.772 1753.01 222.021 1756.78 219.226C1760.59 216.398 1765.61 216.527 1769.57 218.904C1771.01 213.806 1774.43 209.169 1779.31 207.412C1783.4 205.945 1788.1 206.588 1791.7 209.137C1792.77 205.71 1795.44 202.914 1798.66 201.833C1801.88 200.74 1805.56 201.415 1808.27 203.578C1810.27 196.092 1815.46 190.994 1822.5 189.013C1829.53 187.031 1837.48 189.281 1842.67 194.732C1845.29 189.013 1851.67 187.438 1856.9 190.501C1857.16 183.84 1860.87 177.2 1866.1 173.612C1871.34 170.024 1878.24 169.36 1883.98 171.909C1885.07 163.566 1891.14 157.408 1899 157.483C1899.3 150.746 1902.84 144.813 1907.9 141L1908 141Z" fill="url(#paint0_linear_1275_37686)"/>
<path d="M1440 283.647V177.2C1438.87 177.318 1437.74 177.586 1436.62 178.003C1428.84 180.906 1423.9 190.641 1425.86 199.22C1418.31 199.627 1411.52 205.678 1410.08 213.635C1408.64 221.582 1412.8 230.311 1419.66 233.717C1417.27 235.527 1416.35 238.493 1416.43 241.599C1410.7 239.157 1404.24 238.675 1398.28 240.389C1390.51 242.617 1383.74 248.529 1380.12 256.218C1376.75 255.062 1372.51 257.536 1370.92 260.92C1369.81 254.515 1364.9 248.314 1359.15 246.194C1353.4 244.073 1346.63 245.498 1342.06 249.803C1340.95 243.398 1335.18 238.515 1329.11 238.001C1323.04 237.487 1316.9 241.749 1314.85 247.886C1311.36 246.504 1308.55 246.344 1305.47 248.571C1302.38 250.799 1300.39 254.676 1300.28 258.66C1292.04 257.675 1283.26 262.966 1280.02 271.148C1276.37 267.678 1270.55 265.557 1265.7 266.157C1260.85 266.757 1256.29 269.649 1253.47 273.922C1248.23 270.452 1240.33 277.017 1238.48 283.668H1439.99L1440 283.647Z" fill="url(#paint1_linear_1275_37686)"/>
<path d="M0 283.647V177.2C1.13 177.318 2.26 177.586 3.38 178.003C11.16 180.906 16.1 190.641 14.14 199.22C21.69 199.627 28.48 205.678 29.92 213.635C31.36 221.582 27.2 230.311 20.34 233.717C22.73 235.527 23.65 238.493 23.57 241.599C29.3 239.157 35.76 238.675 41.72 240.389C49.49 242.617 56.26 248.529 59.88 256.218C63.25 255.062 67.49 257.536 69.08 260.92C70.19 254.515 75.1 248.314 80.85 246.194C86.6 244.073 93.37 245.498 97.94 249.803C99.05 243.398 104.82 238.515 110.89 238.001C116.96 237.487 123.1 241.749 125.15 247.886C128.64 246.504 131.45 246.344 134.53 248.571C137.62 250.799 139.61 254.676 139.72 258.66C147.96 257.675 156.74 262.966 159.98 271.148C163.63 267.678 169.45 265.557 174.3 266.157C179.15 266.757 183.71 269.649 186.53 273.922C191.77 270.452 199.67 277.017 201.52 283.668H0V283.647Z" fill="url(#paint2_linear_1275_37686)"/>
<path d="M627.39 283.646H300.59C303.2 274.232 314.41 264.903 321.85 269.841C325.84 263.779 332.3 259.666 339.18 258.831C346.06 257.985 354.31 260.973 359.49 265.91C364.07 254.301 376.54 246.804 388.21 248.196C388.37 242.541 391.2 237.047 395.57 233.887C399.95 230.728 403.94 230.953 408.89 232.934C411.78 224.216 420.49 218.165 429.1 218.893C437.71 219.632 445.88 226.551 447.47 235.633C451.73 231.628 457.31 229.378 462.96 229.164C463.64 229.121 464.32 229.132 465 229.164C470.65 229.378 476.23 231.628 480.49 235.633C482.08 226.551 490.25 219.632 498.86 218.893C507.47 218.165 516.18 224.206 519.07 232.934C524.02 230.964 528.01 230.728 532.39 233.887C536.76 237.047 539.6 242.541 539.75 248.196C551.42 246.804 563.89 254.301 568.47 265.91C573.65 260.973 581.9 257.985 588.78 258.831C595.66 259.666 602.13 263.779 606.11 269.841C613.56 264.903 624.76 274.232 627.37 283.646H627.39Z" fill="url(#paint3_linear_1275_37686)"/>
<path d="M1113.39 283.646H786.59C789.2 274.232 800.41 264.903 807.85 269.841C811.84 263.779 818.3 259.666 825.18 258.831C832.06 257.985 840.31 260.973 845.49 265.91C850.07 254.301 862.54 246.804 874.21 248.196C874.37 242.541 877.2 237.047 881.57 233.887C885.95 230.728 889.94 230.953 894.89 232.934C897.78 224.216 906.49 218.165 915.1 218.893C923.71 219.632 931.88 226.551 933.47 235.633C937.73 231.628 943.31 229.378 948.96 229.164C949.64 229.121 950.32 229.132 951 229.164C956.65 229.378 962.23 231.628 966.49 235.633C968.08 226.551 976.25 219.632 984.86 218.893C993.47 218.165 1002.18 224.206 1005.07 232.934C1010.02 230.964 1014.01 230.728 1018.39 233.887C1022.76 237.047 1025.6 242.541 1025.75 248.196C1037.42 246.804 1049.89 254.301 1054.47 265.91C1059.65 260.973 1067.9 257.985 1074.78 258.831C1081.66 259.666 1088.13 263.779 1092.11 269.841C1099.56 264.903 1110.76 274.232 1113.37 283.646H1113.39Z" fill="url(#paint4_linear_1275_37686)"/>
</g>
<defs>
<linearGradient id="paint0_linear_1275_37686" x1="8.42553e-10" y1="212.323" x2="1468.5" y2="212.701" gradientUnits="userSpaceOnUse">
<stop stop-color="#EE5536"/>
<stop offset="1" stop-color="#ED4928"/>
</linearGradient>
<linearGradient id="paint1_linear_1275_37686" x1="1339.24" y1="177.2" x2="1339.24" y2="283.668" gradientUnits="userSpaceOnUse">
<stop stop-color="#FF6445"/>
<stop offset="1" stop-color="#FF6445"/>
</linearGradient>
<linearGradient id="paint2_linear_1275_37686" x1="100.76" y1="177.2" x2="100.76" y2="283.668" gradientUnits="userSpaceOnUse">
<stop stop-color="#FF6445"/>
<stop offset="1" stop-color="#FF6445"/>
</linearGradient>
<linearGradient id="paint3_linear_1275_37686" x1="463.99" y1="218.834" x2="463.99" y2="283.646" gradientUnits="userSpaceOnUse">
<stop stop-color="#FF6445"/>
<stop offset="1" stop-color="#FF6445"/>
</linearGradient>
<linearGradient id="paint4_linear_1275_37686" x1="949.99" y1="218.834" x2="949.99" y2="283.646" gradientUnits="userSpaceOnUse">
<stop stop-color="#FF6445"/>
<stop offset="1" stop-color="#FF6445"/>
</linearGradient>
<clipPath id="clip0_1275_37686">
<rect width="1440" height="284" fill="white"/>
</clipPath>
</defs>
</svg>
