<svg width="20" height="20" viewBox="0 0 20 20" fill="none" xmlns="http://www.w3.org/2000/svg">
<path d="M9.56994 2.39483C9.7635 2.06749 10.2371 2.06749 10.4307 2.39483L12.831 6.45397C12.8982 6.56772 13.0078 6.65021 13.1357 6.68342L17.5861 7.83899C17.9371 7.93012 18.0774 8.35279 17.8506 8.63569L14.8724 12.3506C14.7939 12.4485 14.7551 12.5724 14.7637 12.6976L15.0946 17.5184C15.1202 17.8912 14.7428 18.1593 14.3992 18.0124L10.1969 16.2156C10.0713 16.1619 9.92931 16.1619 9.80376 16.2156L5.6014 18.0124C5.25784 18.1593 4.88042 17.8912 4.90601 17.5184L5.23696 12.6976C5.24555 12.5724 5.20675 12.4485 5.12825 12.3506L2.15008 8.63569C1.92329 8.35279 2.06359 7.93012 2.41453 7.83899L6.86496 6.68342C6.99286 6.65021 7.10242 6.56772 7.16968 6.45397L9.56994 2.39483Z" fill="#FF6445"/>
</svg>
