<svg width="24" height="24" viewBox="0 0 24 24" fill="none" xmlns="http://www.w3.org/2000/svg">
<path fill-rule="evenodd" clip-rule="evenodd" d="M12 10.5C13.2426 10.5 14.25 9.49264 14.25 8.25C14.25 7.00736 13.2426 6 12 6C10.7574 6 9.75 7.00736 9.75 8.25C9.75 9.49264 10.7574 10.5 12 10.5ZM12 12C14.0711 12 15.75 10.3211 15.75 8.25C15.75 6.17893 14.0711 4.5 12 4.5C9.92893 4.5 8.25 6.17893 8.25 8.25C8.25 10.3211 9.92893 12 12 12Z" fill="#395359"/>
<path fill-rule="evenodd" clip-rule="evenodd" d="M12 14.25C9.13702 14.25 6.81645 15.9908 6.17835 18.225C6.14315 18.3483 6.17075 18.4535 6.26051 18.5515C6.36095 18.6611 6.53762 18.75 6.75001 18.75H17.25C17.4624 18.75 17.6391 18.6611 17.7395 18.5515C17.8293 18.4535 17.8569 18.3483 17.8217 18.225C17.1836 15.9908 14.863 14.25 12 14.25ZM4.73602 17.8131C5.58162 14.8523 8.55712 12.75 12 12.75C15.4429 12.75 18.4184 14.8523 19.264 17.8131C19.4563 18.4864 19.2517 19.1216 18.8453 19.565C18.4495 19.9968 17.866 20.25 17.25 20.25H6.75001C6.13397 20.25 5.55047 19.9968 5.15473 19.565C4.74832 19.1216 4.54372 18.4864 4.73602 17.8131Z" fill="#395359"/>
</svg>
