<svg width="42" height="22" viewBox="0 0 42 22" fill="none" xmlns="http://www.w3.org/2000/svg">
<g clip-path="url(#clip0_1253_38325)">
<path d="M40.6 0.662109H1.4C0.626801 0.662109 0 1.28891 0 2.06211V20.2997C0 21.0729 0.626801 21.6997 1.4 21.6997H40.6C41.3732 21.6997 42 21.0729 42 20.2997V2.06211C42 1.28891 41.3732 0.662109 40.6 0.662109Z" fill="white"/>
<path d="M16.5169 16.2508L18.1803 6.47237H20.8408L19.1762 16.2508H16.5169ZM28.7884 6.68316C28.2615 6.48505 27.4354 6.27246 26.404 6.27246C23.775 6.27246 21.9232 7.59872 21.9074 9.4995C21.8926 10.9046 23.2294 11.6885 24.2386 12.1561C25.2743 12.6356 25.6224 12.9412 25.6174 13.3691C25.6108 14.0247 24.7904 14.324 24.0256 14.324C22.9608 14.324 22.3951 14.1757 21.5213 13.8108L21.1784 13.6554L20.8051 15.8444C21.4265 16.1174 22.5755 16.3538 23.7687 16.3661C26.5655 16.3661 28.381 15.055 28.4017 13.0251C28.4116 11.9127 27.7029 11.0663 26.1678 10.3683C25.2379 9.91593 24.6684 9.61409 24.6744 9.15601C24.6744 8.74959 25.1565 8.31496 26.1982 8.31496C27.0681 8.30145 27.6985 8.4915 28.1895 8.6896L28.4279 8.80244L28.7884 6.68316ZM35.635 6.47221H33.5792C32.9423 6.47221 32.4657 6.64634 32.186 7.28309L28.2347 16.2444H31.0285C31.0285 16.2444 31.4852 15.0395 31.5885 14.7749C31.8938 14.7749 34.6079 14.7791 34.9959 14.7791C35.0755 15.1215 35.3196 16.2444 35.3196 16.2444H37.7883L35.635 6.47221ZM32.3731 12.7866C32.5933 12.2231 33.4332 10.053 33.4332 10.053C33.4176 10.079 33.6517 9.4869 33.7859 9.11975L33.9658 9.96283C33.9658 9.96283 34.4752 12.297 34.5817 12.7864L32.3731 12.7866ZM14.2583 6.47221L11.6535 13.1407L11.3761 11.7856C10.8911 10.2234 9.38037 8.53091 7.69141 7.68356L10.0732 16.2353L12.8881 16.2321L17.0767 6.47211L14.2583 6.47221Z" fill="#1434CB"/>
<path d="M9.22457 6.30566H4.9344L4.90039 6.50912C8.23813 7.31856 10.4466 9.27457 11.3635 11.6251L10.4307 7.13152C10.2697 6.51231 9.80242 6.32725 9.22457 6.30566Z" fill="#F2AE14"/>
</g>
<defs>
<clipPath id="clip0_1253_38325">
<rect width="42" height="21.7" fill="white"/>
</clipPath>
</defs>
</svg>
